<svg width="16" height="16" viewBox="0 0 16 16" fill="none" xmlns="http://www.w3.org/2000/svg">
<path d="M11.0166 3.33333C11.0166 3.48479 11.0989 3.72613 11.2773 4.04036C11.4487 4.34198 11.6823 4.66533 11.9238 4.9681V4.96907C12.5371 5.74052 13.2672 6.40937 14.0996 6.91829C14.4165 7.11199 14.7609 7.29772 15.0967 7.43392C15.4362 7.57161 15.7454 7.64974 16 7.64974V8.34993C15.7453 8.34993 15.4354 8.42798 15.0957 8.56575C14.7599 8.70194 14.416 8.88778 14.0996 9.08138C13.2671 9.59103 12.5372 10.2603 11.9238 11.0306C11.6822 11.3337 11.4487 11.6583 11.2773 11.9603C11.0989 12.2747 11.0167 12.5156 11.0166 12.6663H10.3164C10.3165 12.3239 10.4786 11.9483 10.668 11.6146C10.8646 11.2681 11.1229 10.9116 11.376 10.5941C12.0344 9.76724 12.8245 9.04064 13.7344 8.48372C13.8079 8.43877 13.8838 8.39438 13.9609 8.34993H0V7.64974H13.9609C13.8839 7.60537 13.8078 7.56082 13.7344 7.51595C12.9381 7.02914 12.2337 6.4119 11.6289 5.71029L11.376 5.40462C11.1231 5.0877 10.8655 4.73211 10.6689 4.38607C10.4794 4.0523 10.3164 3.67654 10.3164 3.33333H11.0166Z" fill="white"/>
</svg>
