<svg width="20" height="20" viewBox="0 0 20 20" fill="none" xmlns="http://www.w3.org/2000/svg">
<g clip-path="url(#clip0_1_260)">
<path d="M10.0001 1.625C5.40008 1.625 1.66675 5.35833 1.66675 9.95833C1.66675 14.5583 5.40008 18.2917 10.0001 18.2917H14.1667V16.625H10.0001C6.38341 16.625 3.33341 13.575 3.33341 9.95833C3.33341 6.34167 6.38341 3.29167 10.0001 3.29167C13.6167 3.29167 16.6667 6.34167 16.6667 9.95833V11.15C16.6667 11.8083 16.0751 12.4583 15.4167 12.4583C14.7584 12.4583 14.1667 11.8083 14.1667 11.15V9.95833C14.1667 7.65833 12.3001 5.79167 10.0001 5.79167C7.70008 5.79167 5.83341 7.65833 5.83341 9.95833C5.83341 12.2583 7.70008 14.125 10.0001 14.125C11.1501 14.125 12.2001 13.6583 12.9501 12.9C13.4917 13.6417 14.4251 14.125 15.4167 14.125C17.0584 14.125 18.3334 12.7917 18.3334 11.15V9.95833C18.3334 5.35833 14.6001 1.625 10.0001 1.625ZM10.0001 12.4583C8.61675 12.4583 7.50008 11.3417 7.50008 9.95833C7.50008 8.575 8.61675 7.45833 10.0001 7.45833C11.3834 7.45833 12.5001 8.575 12.5001 9.95833C12.5001 11.3417 11.3834 12.4583 10.0001 12.4583Z" fill="white"/>
</g>
<defs>
<clipPath id="clip0_1_260">
<rect width="20" height="20" fill="white"/>
</clipPath>
</defs>
</svg>
