<svg xmlns="http://www.w3.org/2000/svg" width="1512" height="75" viewBox="0 0 1512 75" fill="none">
  <path d="M1512 63.2885C1494.92 66.2413 1425.56 63.4946 1284.74 28.8855C1108.71 -14.3758 1008.49 18.3559 889.261 55.1046C832.92 72.4698 683.671 97.2662 533.682 35.4403C472.471 10.2089 416.697 0.762151 367.284 0.0447244L354.954 0.0447233C264.276 1.35936 196.253 31.3062 156.98 43.306C92.3086 63.0661 25.6506 69.9717 0.0228276 69.9717C0.0229495 71.0204 4.38726e-06 21.8938 6.19229e-06 0.0446904L354.954 0.0447233C359.019 -0.0142058 363.129 -0.0156016 367.284 0.0447244L1512 0.0448303L1512 63.2885Z" fill="currentColor"/>
</svg>