<svg width="20" height="20" viewBox="0 0 20 20" fill="none" xmlns="http://www.w3.org/2000/svg">
<g clip-path="url(#clip0_1_265)">
<path d="M16.6667 12.875C15.625 12.875 14.625 12.7084 13.6917 12.4C13.6083 12.375 13.5167 12.3584 13.4333 12.3584C13.2167 12.3584 13.0083 12.4417 12.8417 12.6L11.0083 14.4334C8.65 13.2334 6.71667 11.3084 5.51667 8.94171L7.35 7.10004C7.58333 6.88337 7.65 6.55837 7.55833 6.26671C7.25 5.33337 7.08333 4.33337 7.08333 3.29171C7.08333 2.83337 6.70833 2.45837 6.25 2.45837H3.33333C2.875 2.45837 2.5 2.83337 2.5 3.29171C2.5 11.1167 8.84167 17.4584 16.6667 17.4584C17.125 17.4584 17.5 17.0834 17.5 16.625V13.7084C17.5 13.25 17.125 12.875 16.6667 12.875ZM4.19167 4.12504H5.44167C5.5 4.85837 5.625 5.58337 5.81667 6.27504L4.81667 7.28337C4.48333 6.27504 4.26667 5.22504 4.19167 4.12504ZM15.8333 15.7667C14.7333 15.6917 13.6667 15.475 12.6667 15.1334L13.6667 14.1334C14.375 14.3334 15.1 14.4584 15.8333 14.5084V15.7667ZM15 4.95837V2.45837H13.3333V4.95837H10.8333V6.62504H13.3333V9.12504H15V6.62504H17.5V4.95837H15Z" fill="white"/>
</g>
<defs>
<clipPath id="clip0_1_265">
<rect width="20" height="20" fill="white"/>
</clipPath>
</defs>
</svg>
