<svg width="170" height="170" viewBox="0 0 170 170" fill="none" xmlns="http://www.w3.org/2000/svg">
<g clip-path="url(#clip0_1_170)">
<path d="M76.0854 36.3342V11.1914C76.0854 6.38596 79.9812 2.49023 84.7867 2.49023H85.2127C90.0181 2.49023 93.9139 6.38596 93.9139 11.1914V35.8315" stroke="white" stroke-width="5.03906" stroke-miterlimit="10" stroke-linecap="round" stroke-linejoin="round"/>
<path d="M118.432 167.51H20.2032C11.6457 167.51 4.70825 160.572 4.70825 152.015C4.70825 150.965 5.55925 150.114 6.6088 150.114H163.391C164.441 150.114 165.292 150.965 165.292 152.015C165.292 160.572 158.354 167.51 149.797 167.51H130.385" stroke="white" stroke-width="5.03906" stroke-miterlimit="10" stroke-linecap="round" stroke-linejoin="round"/>
<path d="M44.432 82.3842H42.3133C33.7558 82.3842 26.8184 75.4468 26.8184 66.8893C26.8184 65.8398 27.6694 64.9888 28.7189 64.9888H141.28C142.33 64.9888 143.181 65.8398 143.181 66.8893C143.181 75.4468 136.244 82.3842 127.686 82.3842H56.3851" stroke="white" stroke-width="5.03906" stroke-miterlimit="10" stroke-linecap="round" stroke-linejoin="round"/>
<path d="M52.405 150.114H19.8098V142.067C19.8098 138.863 22.407 136.266 25.6111 136.266H46.6037C49.8075 136.266 52.405 138.863 52.405 142.067V150.114Z" stroke="white" stroke-width="5.03906" stroke-miterlimit="10" stroke-linecap="round" stroke-linejoin="round"/>
<path d="M36.0965 136.265C41.5699 136.265 46.007 131.828 46.007 126.355C46.007 120.881 41.5699 116.444 36.0965 116.444C30.6231 116.444 26.186 120.881 26.186 126.355C26.186 131.828 30.6231 136.265 36.0965 136.265Z" stroke="white" stroke-width="5.03906" stroke-miterlimit="10" stroke-linecap="round" stroke-linejoin="round"/>
<path d="M36.0964 116.444V109.132" stroke="white" stroke-width="5.03906" stroke-miterlimit="10" stroke-linecap="round" stroke-linejoin="round"/>
<path d="M84.9999 150.114H52.405V142.067C52.405 138.863 55.0022 136.266 58.2063 136.266H79.199C82.4027 136.266 85.0002 138.863 85.0002 142.067V150.114H84.9999Z" stroke="white" stroke-width="5.03906" stroke-miterlimit="10" stroke-linecap="round" stroke-linejoin="round"/>
<path d="M68.6915 136.265C74.1649 136.265 78.6019 131.828 78.6019 126.355C78.6019 120.881 74.1649 116.444 68.6915 116.444C63.2181 116.444 58.781 120.881 58.781 126.355C58.781 131.828 63.2181 136.265 68.6915 136.265Z" stroke="white" stroke-width="5.03906" stroke-miterlimit="10" stroke-linecap="round" stroke-linejoin="round"/>
<path d="M68.6914 116.444V109.132" stroke="white" stroke-width="5.03906" stroke-miterlimit="10" stroke-linecap="round" stroke-linejoin="round"/>
<path d="M101.286 136.265C106.76 136.265 111.197 131.828 111.197 126.355C111.197 120.881 106.76 116.444 101.286 116.444C95.8128 116.444 91.3757 120.881 91.3757 126.355C91.3757 131.828 95.8128 136.265 101.286 136.265Z" stroke="white" stroke-width="5.03906" stroke-miterlimit="10" stroke-linecap="round" stroke-linejoin="round"/>
<path d="M101.286 116.444V109.132" stroke="white" stroke-width="5.03906" stroke-miterlimit="10" stroke-linecap="round" stroke-linejoin="round"/>
<path d="M150.19 150.114H117.595V142.067C117.595 138.863 120.192 136.266 123.396 136.266H144.389C147.593 136.266 150.19 138.863 150.19 142.067V150.114H150.19Z" stroke="white" stroke-width="5.03906" stroke-miterlimit="10" stroke-linecap="round" stroke-linejoin="round"/>
<path d="M133.881 136.265C139.355 136.265 143.792 131.828 143.792 126.355C143.792 120.881 139.355 116.444 133.881 116.444C128.408 116.444 123.971 120.881 123.971 126.355C123.971 131.828 128.408 136.265 133.881 136.265Z" stroke="white" stroke-width="5.03906" stroke-miterlimit="10" stroke-linecap="round" stroke-linejoin="round"/>
<path d="M133.881 116.444V109.132" stroke="white" stroke-width="5.03906" stroke-miterlimit="10" stroke-linecap="round" stroke-linejoin="round"/>
<path d="M36.1074 64.2365V57.1918C36.1074 53.988 38.7046 51.3905 41.9087 51.3905H62.9013C66.1051 51.3905 68.7026 53.9877 68.7026 57.1918V64.0987" stroke="white" stroke-width="5.03906" stroke-miterlimit="10" stroke-linecap="round" stroke-linejoin="round"/>
<path d="M52.3939 51.3906C57.8673 51.3906 62.3043 46.9536 62.3043 41.4802C62.3043 36.0068 57.8673 31.5697 52.3939 31.5697C46.9205 31.5697 42.4834 36.0068 42.4834 41.4802C42.4834 46.9536 46.9205 51.3906 52.3939 51.3906Z" stroke="white" stroke-width="5.03906" stroke-miterlimit="10" stroke-linecap="round" stroke-linejoin="round"/>
<path d="M52.3938 31.5696V24.2576" stroke="white" stroke-width="5.03906" stroke-miterlimit="10" stroke-linecap="round" stroke-linejoin="round"/>
<path d="M68.7024 64.099V57.1921C68.7024 53.9883 71.2995 51.3909 74.5036 51.3909H95.4963C98.7001 51.3909 101.298 53.988 101.298 57.1921V63.4114" stroke="white" stroke-width="5.03906" stroke-miterlimit="10" stroke-linecap="round" stroke-linejoin="round"/>
<path d="M84.9891 51.3906C90.4625 51.3906 94.8996 46.9536 94.8996 41.4802C94.8996 36.0068 90.4625 31.5697 84.9891 31.5697C79.5157 31.5697 75.0786 36.0068 75.0786 41.4802C75.0786 46.9536 79.5157 51.3906 84.9891 51.3906Z" stroke="white" stroke-width="5.03906" stroke-miterlimit="10" stroke-linecap="round" stroke-linejoin="round"/>
<path d="M84.989 31.5696V24.2576" stroke="white" stroke-width="5.03906" stroke-miterlimit="10" stroke-linecap="round" stroke-linejoin="round"/>
<path d="M117.584 51.3906C123.057 51.3906 127.494 46.9536 127.494 41.4802C127.494 36.0068 123.057 31.5697 117.584 31.5697C112.11 31.5697 107.673 36.0068 107.673 41.4802C107.673 46.9536 112.11 51.3906 117.584 51.3906Z" stroke="white" stroke-width="5.03906" stroke-miterlimit="10" stroke-linecap="round" stroke-linejoin="round"/>
<path d="M117.584 31.5696V24.2576" stroke="white" stroke-width="5.03906" stroke-miterlimit="10" stroke-linecap="round" stroke-linejoin="round"/>
<path d="M76.0854 82.3843V118.986" stroke="white" stroke-width="5.03906" stroke-miterlimit="10" stroke-linecap="round" stroke-linejoin="round"/>
<path d="M93.9143 82.3843V118.986" stroke="white" stroke-width="5.03906" stroke-miterlimit="10" stroke-linecap="round" stroke-linejoin="round"/>
</g>
<defs>
<clipPath id="clip0_1_170">
<rect width="170" height="170" fill="white"/>
</clipPath>
</defs>
</svg>
