<svg width="24" height="24" viewBox="0 0 24 24" fill="none" xmlns="http://www.w3.org/2000/svg">
<g clip-path="url(#clip0_1_418)">
<path d="M8.0658 16.7385C8.18168 16.5619 8.24993 16.3515 8.24993 16.125C8.24993 15.8359 8.13705 15.5745 7.95743 15.375C8.13743 15.1755 8.24993 14.9141 8.24993 14.625C8.24993 14.0047 7.74518 13.5 7.12493 13.5H6.74018C6.9783 13.1858 7.12493 12.7987 7.12493 12.375C7.12493 11.5616 6.60105 10.8742 5.87505 10.6151C6.18743 9.84862 6.77018 9.375 7.49993 9.375V8.625C6.3798 8.625 5.50718 9.35625 5.11005 10.5143C4.43618 10.5653 3.86468 10.9688 3.57705 11.5455L3.34118 10.6028C3.1938 10.0121 2.57355 9.636 1.97693 9.78375C1.37543 9.93375 1.00793 10.5461 1.15793 11.1484L1.46543 12.378C1.3863 12.3799 1.30643 12.3889 1.22655 12.4088C0.625051 12.5588 0.257551 13.1711 0.407551 13.7734L1.37168 17.625H1.06793L1.92518 23.625H8.57543L9.43268 17.625H8.92605C8.79968 17.2882 8.50568 16.9845 8.0658 16.7385ZM4.92255 11.3044C4.8918 11.5268 4.87493 11.7589 4.87493 12H5.62493C5.62493 11.7668 5.64443 11.5455 5.67818 11.3355C6.08655 11.5046 6.37493 11.9062 6.37493 12.375C6.37493 12.9953 5.87018 13.5 5.24993 13.5C4.62968 13.5 4.12493 12.9953 4.12493 12.375C4.12493 11.8695 4.46243 11.4458 4.92255 11.3044ZM3.37493 14.25H7.12493C7.33155 14.25 7.49993 14.4184 7.49993 14.625C7.49993 14.8316 7.33155 15 7.12493 15H3.37493C3.1683 15 2.99993 14.8316 2.99993 14.625C2.99993 14.4184 3.1683 14.25 3.37493 14.25ZM7.49993 16.125C7.49993 16.3316 7.33155 16.5 7.12493 16.5H3.37493C3.1683 16.5 2.99993 16.3316 2.99993 16.125C2.99993 15.9184 3.1683 15.75 3.37493 15.75H7.12493C7.33193 15.75 7.49993 15.9184 7.49993 16.125ZM2.1588 10.5113C2.36243 10.4614 2.56493 10.5874 2.61368 10.7842L3.29468 13.5082C3.0783 13.524 2.87955 13.5982 2.7138 13.719L2.5908 13.2274C2.5458 13.0466 2.4528 12.8899 2.33355 12.7582L1.88618 10.9661C1.83593 10.7655 1.95855 10.5611 2.1588 10.5113ZM1.13618 13.5911C1.08593 13.3901 1.20855 13.1861 1.4088 13.1362C1.61168 13.0867 1.81493 13.2124 1.86368 13.4092L2.40368 15.5681C2.3088 15.7327 2.24993 15.9214 2.24993 16.125C2.24993 16.3515 2.31855 16.5619 2.43405 16.7385C2.26718 16.8319 2.1228 16.9339 1.99868 17.0426L1.13618 13.5911ZM2.57543 22.875L1.95068 18.5014L2.6553 18.972L3.30743 22.875H2.57543ZM4.06755 22.875L3.40793 18.9274L4.1223 18.4508L4.87193 18.9506L4.87493 22.875H4.06755ZM4.12268 17.5492L2.99843 18.2992L2.29943 17.8324C2.41043 17.6194 2.71755 17.3989 3.15143 17.2275C3.2238 17.2421 3.29843 17.25 3.37493 17.25H7.12493C7.20143 17.25 7.27605 17.2421 7.34805 17.2275C7.78193 17.3989 8.08943 17.6194 8.20043 17.832L7.49805 18.2996L6.37118 17.5496L5.24655 18.2996L4.12268 17.5492ZM6.4323 22.875H5.62493L5.6223 18.9506L6.3723 18.4508L7.08893 18.9277L6.4323 22.875ZM7.9248 22.875H7.19243L7.84155 18.972L8.54993 18.5006L7.9248 22.875Z" fill="#E6007E"/>
<path d="M12.981 17.9727L12.2329 18.0274C12.3233 19.2623 12.3709 20.5155 12.375 21.7515L12.3762 22.125H14.625V21.375H13.1224C13.1108 20.2433 13.0632 19.1007 12.981 17.9727Z" fill="#E6007E"/>
<path d="M22.5001 0.375H20.051C18.7531 0.375 17.636 1.34362 17.459 2.59387L16.8211 5.24137C16.6553 4.95225 16.4468 4.67625 16.1978 4.42725C15.6541 3.8835 14.9862 3.52237 14.3168 3.411C13.6002 3.29137 12.9665 3.46688 12.5292 3.90413C12.0916 4.34138 11.9168 4.97625 12.0361 5.69175C12.1475 6.36112 12.5086 7.029 13.0523 7.57275C13.1615 7.68188 13.2762 7.78125 13.3943 7.875H12.0001C11.0948 7.875 10.3373 8.52038 10.163 9.375H9.33984L9.45047 9.837C10.3958 13.7895 10.8751 17.8545 10.8751 21.9191V22.5C10.8751 23.1203 11.3798 23.625 12.0001 23.625H19.5001C20.1203 23.625 20.6251 23.1203 20.6251 22.5V21.9191C20.6251 17.8545 21.1043 13.7895 22.0497 9.837L22.1603 9.375H21.3372C21.1628 8.52038 20.4057 7.875 19.5001 7.875H18.494L19.6793 2.94712C19.706 2.76338 19.8657 2.625 20.051 2.625H22.5001C23.1203 2.625 23.6251 2.12025 23.6251 1.5C23.6251 0.87975 23.1203 0.375 22.5001 0.375ZM13.8923 4.125C13.9887 4.125 14.0896 4.13325 14.1935 4.15088C14.7095 4.23675 15.233 4.52362 15.6676 4.9575C16.1018 5.39175 16.3883 5.91525 16.4742 6.43162C16.5207 6.70987 16.4967 6.96 16.4213 7.17562C16.3403 7.158 16.2612 7.14262 16.1877 7.13025C15.884 7.07812 15.6646 7.04025 15.374 6.74963C15.083 6.45863 15.0455 6.23925 14.9933 5.93587C14.9352 5.59838 14.8632 5.178 14.4035 4.71863C14.0697 4.38488 13.757 4.25662 13.4813 4.18875C13.6077 4.14863 13.7442 4.125 13.8923 4.125ZM12.7756 5.56875C12.7291 5.29013 12.7531 5.04 12.8288 4.824C12.9095 4.84163 12.9882 4.85663 13.0613 4.869C13.3643 4.92075 13.5833 4.95825 13.8736 5.2485C14.1646 5.5395 14.2021 5.75887 14.2546 6.06262C14.3127 6.40013 14.3847 6.8205 14.8441 7.27987C15.1782 7.614 15.491 7.74225 15.7666 7.81012C15.5585 7.87537 15.3203 7.89375 15.0567 7.8495C14.5407 7.76362 14.0172 7.47675 13.5826 7.04288C13.1483 6.60825 12.8618 6.08475 12.7756 5.56875ZM21.212 10.125C20.3247 13.989 19.8751 17.9543 19.8751 21.9191V22.5C19.8751 22.7066 19.7067 22.875 19.5001 22.875H12.0001C11.7935 22.875 11.6251 22.7066 11.6251 22.5V21.9191C11.6251 17.9543 11.1755 13.989 10.2882 10.125H14.6251V15.75C14.6251 16.3702 15.1298 16.875 15.7501 16.875C16.3703 16.875 16.8751 16.3702 16.8751 15.75V12.75C16.8751 12.5434 17.0435 12.375 17.2501 12.375C17.4567 12.375 17.6251 12.5434 17.6251 12.75V14.25C17.6251 14.8702 18.1298 15.375 18.7501 15.375C19.3703 15.375 19.8751 14.8702 19.8751 14.25V10.125H21.212ZM17.2501 11.625C16.6298 11.625 16.1251 12.1298 16.1251 12.75V15.75C16.1251 15.9566 15.9567 16.125 15.7501 16.125C15.5435 16.125 15.3751 15.9566 15.3751 15.75V10.125H19.1251V14.25C19.1251 14.4566 18.9567 14.625 18.7501 14.625C18.5435 14.625 18.3751 14.4566 18.3751 14.25V12.75C18.3751 12.1298 17.8703 11.625 17.2501 11.625ZM19.5001 8.625C19.9883 8.625 20.4008 8.93962 20.5561 9.375H10.9441C11.0993 8.93962 11.5118 8.625 12.0001 8.625H15.3533C15.356 8.625 15.359 8.62575 15.362 8.62575C15.365 8.62575 15.3676 8.625 15.3702 8.625H19.5001ZM22.5001 1.875H20.051C19.4948 1.875 19.016 2.29012 18.9436 2.80612L17.7226 7.875H16.9043C17.141 7.54388 17.2576 7.13362 17.2467 6.67762L18.1951 2.7345C18.326 1.81687 19.124 1.125 20.051 1.125H22.5001C22.7067 1.125 22.8751 1.29338 22.8751 1.5C22.8751 1.70662 22.7067 1.875 22.5001 1.875Z" fill="#E6007E"/>
<path d="M15.375 21.375H16.125V22.125H15.375V21.375Z" fill="#E6007E"/>
</g>
<defs>
<clipPath id="clip0_1_418">
<rect width="24" height="24" fill="white"/>
</clipPath>
</defs>
</svg>
