<?xml version="1.0" encoding="UTF-8" standalone="no"?>
<svg
   width="1511.61"
   viewBox="0 0 1511.61 53.951996"
   fill="none"
   version="1.1"
   id="svg14"
   xmlns="http://www.w3.org/2000/svg"
   xmlns:svg="http://www.w3.org/2000/svg"
   style="--fondo-color:#FCB102; --wave-color:#36b43c; --dots-color:#fcb102"
>
  <defs
     id="defs14" />
  <path
     d="M 0.27135578,-3.3973542 1512,-2.8355342 V 12.168996 l -37.5,33.031 -52.5,-33.031 -55.5,33.031 -55.5,-33.031 -52.5,33.031 -56,-33.031 -51.5,29.554 -55,-29.554 -51.5,33.031 -39.5,-22.166 -36,22.166 -52.5,-33.031 -56,33.031 -52.5,-33.031 -53,33.031 -53,-33.031 -53,29.554 -57,-31.7270002 -51,31.7270002 -41,-22.165 -36.5,19.557 L 410.5,9.9959958 357,41.722996 305,9.9959958 248.5,41.722996 195,8.6919958 141,39.114996 87.5,4.7809958 35,35.203996 0,12.168996 Z"
     fill="var(--fondo-color,#FCB102)"
     id="path1" />
  <path
     d="m 36.1947,33.919996 c 0.4099,0.009 12.5571,-7.614 26.9838,-16.951 C 77.6052,7.6309958 89.7525,-4.1503906e-6 90.1724,-4.1503906e-6 90.5923,-4.1503906e-6 102.739,7.8049958 143.42,34.702996 l 25.994,-16.734 c 14.297,-9.2060002 26.554,-17.01200015 27.244,-17.35100015 0.77,-0.383 11.387,6.03899995 27.744,16.78600015 16.406,10.773 26.974,17.169 27.743,16.786 0.69,-0.348 12.917,-8.154 53.118,-34.08600015 L 331.817,17.498996 c 14.607,9.564 27.004,17.239 27.554,17.039 0.55,-0.192 12.697,-7.901 26.994,-17.126 23.644,-15.2540002 26.174,-16.66400015 27.993,-15.6370002 1.1,0.618 12.797,8.171 25.994,16.7690002 13.197,8.606 24.445,15.95 24.995,16.316 0.559,0.365 9.207,-4.647 37.991,-23.261 l 36.492,24.079 11.247,-7.153 c 6.189,-3.933 18.376,-11.748 42.93,-27.59400015 L 620.661,18.412996 c 22.585,14.82 26.914,17.326 28.394,16.499 0.959,-0.539 12.997,-8.223 26.743,-17.073 13.747,-8.8590002 25.555,-15.9510002 26.244,-15.7590002 0.69,0.182 12.948,7.9790002 53.238,34.2940002 l 53.488,-34.6340002 53.988,34.8080002 21.614,-13.979 c 11.571,-7.487 23.445,-15.1700002 31.874,-20.6370002 l 25.994,16.9600002 c 14.296,9.328 26.554,17.117 27.243,17.308 0.69,0.191 9.118,-4.743 18.746,-10.964 9.618,-6.222 18.053,-11.522 18.743,-11.774 0.69,-0.253 9.12,4.647 18.75,10.895 9.62,6.248 17.83,11.356 18.24,11.338 0.41,-0.008 12.11,-7.327 26,-16.264 13.89,-8.928 25.8,-16.5680002 26.49,-16.9690002 0.83,-0.478 9.14,4.386 25,14.6550002 13.05,8.449 25.09,16.281 29.74,19.414 l 53.99,-34.6860002 3,1.975 c 1.65,1.088 13.68,8.9020002 26.74,17.3520002 14.6,9.45 24.23,15.141 24.99,14.758 0.69,-0.339 12.72,-7.988 26.75,-17.003 14.03,-9.0160002 26.05,-16.1770002 26.74,-15.9160002 0.69,0.261 12.84,8.0490002 52.74,34.1720002 l 26.74,-17.291 c 16.29,-10.5200002 27.24,-17.0470002 28,-16.6810002 0.69,0.339 12.84,8.1710002 52.74,34.2070002 l 37.99,-24.365 -0.5,16.934 -11,7.179 c -6.05,3.942 -14.49,9.337 -26.49,16.786 l -23.75,-15.376 c -13.06,-8.45 -25.09,-16.273 -29.74,-19.388 l -53.99,34.694 -3,-1.992 c -1.65,-1.097 -13.69,-8.92 -26.74,-17.369 -14.53,-9.407 -24.24,-15.142 -25,-14.768 -0.69,0.34 -12.71,7.997 -26.74,17.021 -14.03,9.024 -26.05,16.195 -26.74,15.925 -0.69,-0.27 -12.84,-8.067 -52.74,-34.19 l -26.75,17.291 c -16.28,10.52 -27.23,17.047 -27.99,16.681 -0.69,-0.339 -12.84,-8.171 -52.74,-34.207 l -53.99,34.808 -35.99,-23.496 -3.25,1.932 c -1.79,1.071 -10.104,6.353 -18.492,11.748 -8.928,5.752 -15.867,9.633 -16.747,9.381 -0.829,-0.244 -12.187,-7.414 -25.244,-15.951 -13.057,-8.537 -24.704,-16.073 -25.884,-16.751 -1.999,-1.166 -3.709,-0.218 -28.743,15.95 -16.197,10.46 -27.094,16.952 -27.854,16.586 -0.69,-0.339 -12.837,-8.171 -52.738,-34.207 l -53.988,34.808 -26.494,-17.404 c -14.576,-9.572 -26.723,-17.404 -26.993,-17.404 -0.27,0 -12.088,7.492 -26.244,16.647 -14.157,9.146 -26.304,16.786 -26.994,16.969 -0.69,0.174 -12.947,-7.319 -27.244,-16.647 -14.297,-9.337 -26.444,-16.969 -26.994,-16.969 -0.55,0 -11.457,6.761 -24.244,15.028 -12.787,8.276 -24.705,15.907 -29.743,18.91 l -17.606,-11.531 c -9.688,-6.343 -17.786,-11.825 -17.996,-12.182 -0.22,-0.357 -8.378,4.49 -18.136,10.773 -9.758,6.291 -18.196,11.765 -18.746,12.183 -0.61,0.452 -11.517,-6.092 -27.744,-16.656 -14.706,-9.563 -27.303,-17.204 -27.993,-16.969 -0.69,0.226 -12.897,7.962 -52.998,33.947 l -26.364,-17.187 c -18.616,-12.139 -26.874,-17.038 -28.114,-16.664 -0.959,0.278 -12.767,7.64 -26.244,16.36 -13.476,8.71 -25.054,16.116 -25.744,16.446 -0.76,0.374 -11.677,-6.169 -54.737,-34.155 l -2.5,1.636 c -1.379,0.896 -13.407,8.719 -50.988,33.128 l -25.994,-16.968 c -14.297,-9.338 -26.5539,-17.161 -27.2438,-17.396 -0.6898,-0.235 -13.1769,7.249 -27.7436,16.63 -20.1954,13.009 -26.8839,16.89 -28.1136,16.316 -0.8898,-0.418 -9.0779,-5.648 -34.76203661,-22.512 l -0.0599863,-8.049 c -0.0299931,-4.43 0.1699609,-8.05 0.4498969,-8.05 0.269939,0 8.25811601,5.082 17.74592601,11.295 9.4878,6.214 17.586,11.304 17.9959,11.313 z"
     fill="var(--wave-color,#36b43c)"
     id="path2" />
  <path
     d="m 81.9853,43.465996 c 0.02,-1.584 1.0097,-3.498 2.4494,-4.786 1.5097,-1.34 3.5392,-2.132 5.4488,-2.132 1.9195,0 3.979,0.809 5.5487,2.175 1.5596,1.358 2.4994,3.159 2.4994,4.786 0,1.601 -0.9498,3.455 -2.4494,4.786 -1.5597,1.375 -3.5792,2.176 -5.4988,2.176 -1.9195,0 -3.9791,-0.809 -5.5487,-2.176 -1.6096,-1.401 -2.4794,-3.124 -2.4494,-4.829 z"
     fill="var(--dots-color,#fcb102)"
     fill-opacity="0.99"
     id="path3" />
  <path
     d="m 189.421,43.743996 c 0,-2.288 0.71,-3.594 2.809,-5.134 1.54,-1.131 3.899,-2.062 5.239,-2.062 1.34,0 3.539,0.879 4.889,1.958 1.339,1.079 2.519,2.741 2.609,3.698 0.09,0.957 0.12,2.428 0.06,3.263 -0.07,0.836 -1.02,2.306 -2.119,3.263 -1.27,1.106 -3.37,1.749 -5.749,1.767 -2.569,0.017 -4.379,-0.557 -5.749,-1.828 -1.219,-1.139 -1.999,-3.054 -1.989,-4.925 z"
     fill="var(--dots-color,#fcb102)"
     fill-opacity="0.99"
     id="path4" />
  <path
     d="m 296.876,43.726996 c 0.01,-1.662 0.84,-3.551 2.01,-4.569 1.333,-1.16 3.332,-1.74 5.998,-1.74 3.2,0 4.409,0.478 6.029,2.393 1.12,1.314 2.019,3.08 1.999,3.916 -0.01,0.835 -0.589,2.506 -1.279,3.716 -0.69,1.2 -2.38,2.593 -3.749,3.089 -1.46,0.522 -3.71,0.609 -5.399,0.2 -1.6,-0.383 -3.519,-1.479 -4.259,-2.437 -0.75,-0.957 -1.35,-3.011 -1.35,-4.568 z"
     fill="var(--dots-color,#fcb102)"
     fill-opacity="0.99"
     id="path5" />
  <path
     d="m 404.362,44.378996 c 0,-2.776 0.559,-4.029 2.369,-5.299 1.31,-0.914 3.779,-1.653 5.499,-1.645 1.869,0.009 4.049,0.801 5.409,1.958 1.579,1.349 2.259,2.933 2.249,5.204 -0.02,2.532 -0.64,3.655 -2.779,5.03 -1.51,0.974 -3.879,1.775 -5.249,1.784 -1.38,0 -3.629,-0.757 -4.999,-1.697 -1.96,-1.332 -2.499,-2.489 -2.499,-5.335 z"
     fill="var(--dots-color,#fcb102)"
     fill-opacity="0.99"
     id="path6" />
  <path
     d="m 587.15,40.706996 c 0.69,-0.827 2.359,-1.879 3.709,-2.332 1.36,-0.461 3.359,-0.635 4.459,-0.392 1.1,0.244 3.009,1.393 4.249,2.55 1.24,1.158 2.249,3.081 2.249,4.281 0,1.193 -0.389,2.863 -0.869,3.699 -0.48,0.835 -2.39,2.062 -4.249,2.715 -2.86,1.009 -3.82,1.009 -6.259,0 -1.59,-0.653 -3.269,-1.88 -3.749,-2.715 -0.48,-0.836 -0.86,-2.602 -0.84,-3.916 0.02,-1.314 0.6,-3.072 1.3,-3.89 z"
     fill="var(--dots-color,#fcb102)"
     fill-opacity="0.99"
     id="path7" />
  <path
     d="m 693.296,43.508996 c 0.269,-1.436 1.509,-3.202 2.749,-3.924 1.24,-0.723 3.599,-1.297 5.249,-1.288 1.719,0.017 3.969,0.853 5.279,1.966 1.529,1.314 2.259,2.924 2.219,4.987 -0.02,1.94 -0.85,3.768 -2.27,5.029 -1.269,1.123 -3.409,1.967 -4.978,1.958 -1.51,-0.017 -3.49,-0.322 -4.389,-0.678 -0.9,-0.357 -2.25,-1.732 -3,-3.046 -0.75,-1.314 -1.129,-3.568 -0.859,-5.004 z"
     fill="var(--dots-color,#fcb102)"
     fill-opacity="0.99"
     id="path8" />
  <path
     d="m 800.821,45.640996 c 0.027,-2.054 0.843,-3.794 2.449,-5.221 1.32,-1.175 3.33,-2.132 4.449,-2.132 1.13,0 3.17,0.487 4.549,1.088 1.37,0.6 2.94,1.966 3.5,3.045 0.549,1.079 1.019,2.646 1.029,3.481 0.02,0.836 -0.879,2.602 -1.999,3.916 -1.62,1.915 -2.83,2.393 -6.029,2.393 -2.666,0 -4.665,-0.58 -5.998,-1.74 -1.27,-1.105 -1.98,-2.863 -1.95,-4.83 z"
     fill="var(--dots-color,#fcb102)"
     fill-opacity="0.99"
     id="path9" />
  <path
     d="m 1089.72,45.423996 c 0.04,-1.793 0.97,-3.664 2.48,-5.004 1.51,-1.34 3.54,-2.132 5.45,-2.132 1.92,0 3.98,0.809 5.55,2.175 1.42,1.236 2.51,3.212 2.53,4.569 0.02,1.314 -0.88,3.472 -2,4.786 -1.59,1.88 -2.84,2.393 -5.78,2.376 -2.5,-0.012 -4.51,-0.664 -6.03,-1.958 -1.5,-1.279 -2.24,-2.915 -2.2,-4.812 z"
     fill="var(--dots-color,#fcb102)"
     fill-opacity="0.99"
     id="path10" />
  <path
     d="m 1198.27,41.924996 c 0.89,-1.113 2.58,-2.358 3.76,-2.775 1.18,-0.409 2.49,-0.775 2.9,-0.81 0.41,-0.026 1.99,0.479 3.5,1.132 1.51,0.652 3.09,1.827 3.5,2.61 0.41,0.783 0.77,2.506 0.79,3.82 0.03,1.314 -0.76,3.272 -1.75,4.351 -0.98,1.071 -3.25,2.15 -5.04,2.393 -2.65,0.357 -3.8,-0.043 -6.25,-2.175 -1.65,-1.436 -3,-3.49 -3.01,-4.569 0,-1.079 0.72,-2.863 1.6,-3.977 z"
     fill="var(--dots-color,#fcb102)"
     fill-opacity="0.99"
     id="path11" />
  <path
     d="m 907.647,45.362996 c -0.06,-0.888 0.869,-2.654 2.059,-3.916 1.64,-1.723 3.069,-2.28 5.859,-2.271 2.439,0.008 4.449,0.67 5.958,1.958 1.38,1.174 2.26,2.967 2.25,4.551 -0.01,1.435 -0.62,3.393 -1.37,4.351 -0.74,0.957 -2.659,2.053 -4.259,2.436 -1.689,0.409 -3.939,0.322 -5.399,-0.2 -1.369,-0.496 -3.059,-1.888 -3.749,-3.089 -0.69,-1.21 -1.299,-2.924 -1.349,-3.82 z"
     fill="var(--dots-color,#fcb102)"
     fill-opacity="0.99"
     id="path12" />
  <path
     d="m 1304.47,46.389996 c -0.14,-2.359 0.43,-3.734 2.17,-5.222 1.43,-1.218 3.56,-2.01 5.43,-2.018 1.69,0 4.09,0.583 5.33,1.305 1.24,0.722 2.47,2.489 2.75,3.924 0.28,1.436 -0.11,3.69 -0.86,5.004 -0.75,1.314 -2.1,2.689 -3,3.046 -0.9,0.356 -2.65,0.67 -3.89,0.678 -1.24,0.018 -3.49,-0.765 -4.99,-1.74 -2.04,-1.305 -2.8,-2.602 -2.94,-4.977 z"
     fill="var(--dots-color,#fcb102)"
     fill-opacity="0.99"
     id="path13" />
  <path
     d="m 1411.64,45.858996 c 0.04,-1.332 1.16,-3.394 2.49,-4.569 1.51,-1.34 3.54,-2.132 5.45,-2.132 1.92,0 3.98,0.81 5.55,2.176 1.42,1.235 2.51,3.211 2.53,4.568 0.02,1.314 -0.88,3.472 -2,4.786 -1.62,1.915 -2.83,2.393 -6.03,2.393 -3.2,0 -4.41,-0.478 -6.03,-2.393 -1.12,-1.314 -2,-3.489 -1.96,-4.829 z"
     fill="var(--dots-color,#fcb102)"
     fill-opacity="0.99"
     id="path14" />
</svg>
