<svg width="24" height="24" viewBox="0 0 24 24" fill="none" xmlns="http://www.w3.org/2000/svg">
<g clip-path="url(#clip0_1_348)">
<path d="M11.1155 14.8604L11.8316 14.5654L12.1507 15.3399L11.4345 15.6349L11.1155 14.8604Z" fill="#FF0101"/>
<path d="M8.72217 9.05212L9.43834 8.75714L11.5119 13.7914L10.7957 14.0863L8.72217 9.05212Z" fill="#FF0101"/>
<path d="M22.5666 10.913L23.7581 8.01949C23.9094 7.81548 24 7.59522 24 7.35483C24 6.91974 23.7178 6.31081 22.433 5.79987C22.4416 5.71123 22.4516 5.62297 22.4516 5.53237V3.09678H22.0645C20.8006 3.09678 19.7388 3.96814 19.4411 5.14064C19.1582 5.11084 18.8698 5.08724 18.5756 5.07017C18.5759 5.0574 18.5806 5.04539 18.5806 5.03225C18.5806 3.38669 14.7124 2.59237 11.2258 2.72477V2.70966C11.2258 1.21545 10.0099 0 8.5161 0H8.12902V2.43559C8.12902 2.66475 8.16152 2.88771 8.21574 3.10294C7.01417 3.38281 5.41936 3.95651 5.41936 5.03225C5.41936 5.04539 5.42402 5.0574 5.42439 5.07017C5.13019 5.0872 4.84179 5.11043 4.55882 5.14064C4.26115 3.96814 3.19934 3.09678 1.93547 3.09678H1.54839V5.53237C1.54839 5.62297 1.55847 5.71119 1.56697 5.79987C0.282193 6.31085 0 6.91974 0 7.35483C0 7.59522 0.0905942 7.81548 0.241938 8.01985L1.43342 10.9134C0.610439 11.136 0 11.8819 0 12.7742V22.0645C0 23.1317 0.868259 24 1.93547 24H22.0645C23.1317 24 24 23.1317 24 22.0645V12.7742C24 11.8819 23.3896 11.136 22.5666 10.913ZM21.6774 13.1613V21.6774H2.32258V13.1613H2.35937L5.15379 19.9479C5.39303 20.5281 5.95313 20.9032 6.58064 20.9032C7.20814 20.9032 7.76824 20.5281 8.00785 19.9479L9.76874 15.6716L10.5731 17.6253C10.8124 18.2056 11.3725 18.5806 12 18.5806C12.6275 18.5806 13.1876 18.2055 13.4272 17.6253L14.2316 15.6716L15.9925 19.9479C16.2318 20.5281 16.7919 20.9032 17.4194 20.9032C18.0468 20.9032 18.607 20.5281 18.8466 19.9479L21.6406 13.1613H21.6774V13.1613ZM3.87097 8.12902C3.90968 8.12902 3.94646 8.1356 3.98361 8.14062L4.28361 8.18051L4.41213 7.95212C4.61924 7.58362 5.00518 7.35483 5.41936 7.35483C5.87536 7.35483 6.39639 7.62269 6.59072 7.95404L6.97743 8.89354C6.84466 8.89624 6.71577 8.90322 6.58064 8.90322C5.15419 8.90322 3.94026 8.75343 2.99304 8.53472C3.20942 8.28388 3.52607 8.12902 3.87097 8.12902ZM4.64517 5.90981C4.99354 5.87303 5.35045 5.84555 5.71589 5.8293L6.06855 6.68556C5.85682 6.62016 5.63734 6.58068 5.4194 6.58068C5.14844 6.58068 4.886 6.64147 4.64521 6.74868L4.64517 5.90981ZM9.70297 5.85792L9.83149 5.62954C10.0386 5.26104 10.4245 5.03225 10.8387 5.03225C11.2529 5.03225 11.6388 5.26104 11.846 5.62913L11.9745 5.85751L12.2741 5.81763C12.5385 5.78203 12.8133 5.85364 13.0371 6.00498L13.4532 6.28717L13.6197 5.8122C13.7827 5.34575 14.2208 5.03221 14.7097 5.03221C15.3337 5.03221 15.8404 5.52768 15.866 6.14551C14.8847 6.40059 13.569 6.5806 12 6.5806C10.5736 6.5806 9.35966 6.4308 8.41244 6.21209C8.62882 5.96126 8.94548 5.8064 9.29038 5.8064C9.32908 5.8064 9.36587 5.81297 9.40343 5.818L9.70297 5.85792ZM19.3548 6.74864C19.114 6.64143 18.8516 6.58064 18.5806 6.58064C18.3608 6.58064 18.1432 6.61701 17.935 6.67739L18.2841 5.82926C18.6499 5.84551 19.0068 5.87299 19.3548 5.90977V6.74864ZM21.007 8.53472C20.0597 8.75343 18.8458 8.90322 17.4194 8.90322C17.2843 8.90322 17.1554 8.89624 17.0226 8.89354L17.4252 7.91611C17.6102 7.60065 18.1138 7.35483 18.5806 7.35483C18.9948 7.35483 19.3808 7.58362 19.5879 7.95172L19.7528 8.17777L20.0148 8.14062C20.0524 8.1356 20.0899 8.12902 20.129 8.12902C20.4739 8.12902 20.7906 8.28388 21.007 8.53472ZM20.5134 13.8658L18.1304 19.6529C18.0112 19.9421 17.7325 20.129 17.4194 20.129C17.1062 20.129 16.8275 19.942 16.7082 19.6529L14.6501 14.6547L16.7067 9.66039C16.9421 9.66851 17.177 9.67741 17.4193 9.67741C19.0231 9.67741 20.4828 11.6651 20.5134 13.8658ZM15.6735 10.1357C15.3759 8.99108 14.753 7.9231 13.9002 7.26268C15.1568 7.13959 16.3107 6.89067 17.1608 6.52372L15.6735 10.1357ZM12 7.35483C13.6037 7.35483 15.0635 9.34256 15.094 11.5432L12.7111 17.3303C12.5919 17.6195 12.3131 17.8064 12 17.8064C11.6869 17.8064 11.4081 17.6195 11.2889 17.3303L6.83923 6.52336C8.10775 7.07149 10.0579 7.35483 12 7.35483ZM6.58064 9.67741C6.82294 9.67741 7.05794 9.66851 7.29326 9.65998L9.3499 14.6543L7.29171 19.6529C7.1725 19.942 6.89378 20.129 6.58064 20.129C6.26745 20.129 5.98877 19.942 5.86956 19.6529L3.48659 13.8658C3.51717 11.6651 4.97688 9.67741 6.58064 9.67741ZM4.6804 9.5849C3.82762 10.2453 3.20481 11.3133 2.9071 12.458L1.41987 8.84594C2.26992 9.2133 3.42388 9.46181 4.6804 9.5849ZM21.0929 12.4583C20.7952 11.3137 20.1724 10.2457 19.3196 9.58527C20.5761 9.46218 21.73 9.21326 22.5801 8.84631L21.0929 12.4583ZM23.2258 7.35483C23.2258 7.65446 22.7113 8.01753 21.7978 8.31715C21.6681 8.09498 21.4978 7.90334 21.2969 7.75122C21.7278 7.45081 22.0529 7.03663 22.2472 6.56051C22.9603 6.8605 23.2258 7.1667 23.2258 7.35483ZM20.129 5.80644C20.129 4.87159 20.7952 4.08968 21.6774 3.91005V5.53237C21.6774 6.27019 21.2675 6.93366 20.6075 7.26346L20.3841 7.37496C20.3001 7.36373 20.2153 7.35483 20.129 7.35483V5.80644ZM12 3.48386C15.5442 3.48386 17.8064 4.4009 17.8064 5.03225C17.8064 5.30513 17.3826 5.63109 16.6169 5.91328C16.4795 4.97962 15.6809 4.25805 14.7097 4.25805C14.0408 4.25805 13.4291 4.60761 13.08 5.15999C12.8586 5.07483 12.629 5.03572 12.3786 5.03225C12.0941 4.65407 11.6822 4.39584 11.2254 4.30063V3.50631C11.4832 3.49627 11.7399 3.48386 12 3.48386ZM8.90322 0.813307C9.7854 0.992903 10.4516 1.77485 10.4516 2.70966V4.30063C10.4044 4.31072 10.3579 4.32268 10.3115 4.33587L9.97316 4.16672C9.31316 3.83692 8.90322 3.17345 8.90322 2.43563V0.813307ZM8.51418 3.82876C8.75224 4.22629 9.09482 4.55768 9.51521 4.79341C9.4374 4.86735 9.36346 4.94553 9.29842 5.03225C9.29573 5.03225 9.29262 5.03225 9.2903 5.03225C8.59314 5.03225 7.96372 5.4085 7.62151 5.99457C6.70797 5.69494 6.19352 5.33187 6.19352 5.03225C6.19356 4.74466 6.81947 4.20232 8.51418 3.82876ZM2.32258 3.91005C3.20477 4.08964 3.87097 4.87196 3.87097 5.80644V7.3552C3.78312 7.35483 3.69718 7.36218 3.61201 7.373L3.39253 7.26346C2.73252 6.93366 2.32258 6.27019 2.32258 5.53237V3.91005ZM1.75318 6.56051C1.9471 7.03585 2.27188 7.44967 2.70195 7.74966C2.50145 7.90256 2.33148 8.09457 2.20219 8.31715C1.28824 8.01716 0.774195 7.65446 0.774195 7.35483C0.774195 7.1667 1.03973 6.8605 1.75318 6.56051ZM23.2258 22.0645C23.2258 22.7047 22.7048 23.2258 22.0645 23.2258H1.93547C1.29522 23.2258 0.774195 22.7047 0.774195 22.0645V12.7742C0.774195 12.204 1.1876 11.731 1.73031 11.6338L2.06052 12.4363C1.76285 12.5439 1.54839 12.8269 1.54839 13.1613V21.6775C1.54839 22.1044 1.89562 22.4517 2.32258 22.4517H21.6774C22.1044 22.4517 22.4516 22.1044 22.4516 21.6775V13.1613C22.4516 12.8268 22.2371 12.5438 21.9395 12.4359L22.2697 11.6334C22.8124 11.731 23.2258 12.204 23.2258 12.7742V22.0645Z" fill="#FF0101"/>
</g>
<defs>
<clipPath id="clip0_1_348">
<rect width="24" height="24" fill="white"/>
</clipPath>
</defs>
</svg>
