<svg width="16" height="16" viewBox="0 0 16 16" fill="none" xmlns="http://www.w3.org/2000/svg">
<path d="M14.6393 9.12871V14.048H11.7873V9.45804C11.7873 8.30471 11.3746 7.51804 10.3426 7.51804C9.55459 7.51804 9.08525 8.04871 8.87925 8.56137C8.80392 8.74471 8.78459 9.00004 8.78459 9.25671V14.048H5.93125C5.93125 14.048 5.96992 6.27471 5.93125 5.46871H8.78459V6.68471L8.76592 6.71271H8.78459V6.68471C9.16325 6.10137 9.83992 5.26737 11.3553 5.26737C13.2319 5.26737 14.6393 6.49404 14.6393 9.12871ZM2.94725 1.33337C1.97192 1.33337 1.33325 1.97337 1.33325 2.81537C1.33325 3.63871 1.95325 4.29804 2.90992 4.29804H2.92859C3.92392 4.29804 4.54192 3.63871 4.54192 2.81537C4.52459 1.97337 3.92392 1.33337 2.94725 1.33337ZM1.50259 14.048H4.35459V5.46871H1.50259V14.048Z" fill="white"/>
</svg>
