<svg width="170" height="170" viewBox="0 0 170 170" fill="none" xmlns="http://www.w3.org/2000/svg">
<g clip-path="url(#clip0_1_200)">
<path d="M158.379 0H96.6211C90.2132 0 85 5.21322 85 11.6211V89.0949C81.1657 87.9335 77.1667 87.1562 73.0469 86.8069V79.6257H76.764C79.5145 79.6257 81.7444 77.3958 81.7444 74.6453C81.7444 71.8947 79.5145 69.6648 76.764 69.6648H59.3685C56.618 69.6648 54.388 71.8947 54.388 74.6453C54.388 77.3958 56.618 79.6257 59.3685 79.6257H63.0859V86.8069C34.7912 89.2038 12.1726 111.822 9.77566 140.117H8.30078C3.72373 140.117 0 143.841 0 148.418V151.738C0 161.808 8.19221 170 18.2617 170H158.379C164.787 170 170 164.787 170 158.379V11.6211C170 5.21322 164.787 0 158.379 0ZM9.96094 151.738V150.078H14.542H121.591H126.172V151.738C126.172 156.315 122.448 160.039 117.871 160.039H18.2617C13.6847 160.039 9.96094 156.315 9.96094 151.738ZM68.0664 96.5537C93.1527 96.5537 113.855 115.681 116.357 140.117H19.7761C22.2776 115.681 42.9801 96.5537 68.0664 96.5537ZM160.039 158.379C160.039 159.294 159.294 160.039 158.379 160.039H134.129C135.407 157.547 136.133 154.727 136.133 151.738V148.418C136.133 143.841 132.409 140.117 127.832 140.117H126.357C124.625 119.667 112.329 102.181 94.9609 93.152V11.6211C94.9609 10.7057 95.7057 9.96094 96.6211 9.96094H158.379C159.294 9.96094 160.039 10.7057 160.039 11.6211V158.379Z" fill="white"/>
<path d="M121.357 34.5312H133.643C136.393 34.5312 138.623 32.3013 138.623 29.5508C138.623 26.8002 136.393 24.5703 133.643 24.5703H121.357C118.607 24.5703 116.377 26.8002 116.377 29.5508C116.377 32.3013 118.607 34.5312 121.357 34.5312Z" fill="white"/>
<path d="M146.26 54.4531H108.74C105.99 54.4531 103.76 56.683 103.76 59.4336C103.76 62.1841 105.99 64.4141 108.74 64.4141H146.26C149.01 64.4141 151.24 62.1841 151.24 59.4336C151.24 56.683 149.01 54.4531 146.26 54.4531Z" fill="white"/>
<path d="M146.26 74.375H108.74C105.99 74.375 103.76 76.6049 103.76 79.3555C103.76 82.106 105.99 84.3359 108.74 84.3359H146.26C149.01 84.3359 151.24 82.106 151.24 79.3555C151.24 76.6049 149.01 74.375 146.26 74.375Z" fill="white"/>
<path d="M64.4749 115.48C64.6555 115.48 64.8385 115.47 65.0221 115.45C66.0252 115.341 67.0491 115.285 68.0665 115.285C70.817 115.285 73.047 113.055 73.047 110.304C73.047 107.554 70.817 105.324 68.0665 105.324C66.6892 105.324 65.3007 105.399 63.9397 105.548C61.2054 105.847 59.2308 108.306 59.53 111.04C59.8089 113.591 61.9667 115.48 64.4749 115.48Z" fill="white"/>
<path d="M36.7927 132.047C37.5414 132.448 38.3466 132.638 39.1405 132.638C40.9172 132.638 42.6368 131.685 43.5346 130.009C45.9285 125.541 49.4959 121.804 53.8515 119.201C56.2125 117.79 56.9829 114.732 55.5717 112.371C54.1606 110.01 51.1042 109.239 48.7415 110.651C42.8373 114.179 38.0006 119.247 34.7547 125.305C33.4558 127.729 34.3679 130.748 36.7927 132.047Z" fill="white"/>
</g>
<defs>
<clipPath id="clip0_1_200">
<rect width="170" height="170" fill="white"/>
</clipPath>
</defs>
</svg>
