<svg width="24" height="24" viewBox="0 0 24 24" fill="none" xmlns="http://www.w3.org/2000/svg">
<g clip-path="url(#clip0_1_388)">
<path d="M24 0H0V0.774194H0.740903L0.336387 5.62413L2.70968 4.67497L5.08297 5.62413L4.67845 0.774194H6.93406L6.52993 5.62413L8.90323 4.67497L11.2765 5.62413L10.872 0.774194H13.1276L12.7235 5.62413L15.0968 4.67497L17.4701 5.62413L17.0655 0.774194H19.3212L18.917 5.62413L21.2903 4.67497L23.6636 5.62413L23.2591 0.774194H24V0ZM4.20736 4.44039L2.70968 3.84116L1.212 4.44039L1.51742 0.774194H3.90232L4.20736 4.44039ZM10.4009 4.44039L8.90323 3.84116L7.40555 4.44039L7.71097 0.774194H10.0959L10.4009 4.44039ZM16.5944 4.44039L15.0968 3.84116L13.5991 4.44039L13.9045 0.774194H16.2894L16.5944 4.44039ZM22.788 4.44039L21.2903 3.84116L19.7926 4.44039L20.0981 0.774194H22.483L22.788 4.44039Z" fill="#E24A75"/>
<path d="M21.6776 18.5807H20.089C21.5054 17.6892 22.4518 16.116 22.4518 14.3226V13.1613H21.6776C21.6776 11.9659 20.7699 10.9796 19.6078 10.853C19.2877 9.93369 18.4148 9.29033 17.4196 9.29033C16.4236 9.29033 15.5511 9.9333 15.2309 10.853C14.0689 10.98 13.1615 11.9663 13.1615 13.1613H12.3873V14.3226C12.3873 16.116 13.3338 17.6892 14.7502 18.5807H9.25028C10.6667 17.6892 11.6131 16.116 11.6131 14.3226V13.1613H10.6911L9.39661 10.5724L8.62241 11.3466L7.50525 9.11227L5.61816 10.3703L4.66822 8.47046L3.25183 10.9483L1.34654 10.1861L2.19661 13.1613H1.54861V14.3226C1.54861 16.116 2.49506 17.6892 3.91145 18.5807H2.3228C1.46887 18.5807 0.774414 19.2751 0.774414 20.129V22.0645C0.774414 23.1317 1.64267 24 2.7099 24C3.34512 24 3.90525 23.688 4.25828 23.2138C4.61132 23.688 5.17145 24 5.80667 24C6.4419 24 7.00203 23.688 7.35506 23.2138C7.70809 23.688 8.26822 24 8.90345 24C9.53867 24 10.0988 23.688 10.4518 23.2138C10.8049 23.688 11.365 24 12.0002 24C12.6354 24 13.1956 23.688 13.5486 23.2138C13.9016 23.688 14.4618 24 15.097 24C15.7322 24 16.2923 23.688 16.6454 23.2138C16.9984 23.688 17.5585 24 18.1938 24C18.829 24 19.3891 23.688 19.7422 23.2138C20.0952 23.688 20.6553 24 21.2905 24C22.3578 24 23.226 23.1317 23.226 22.0645V20.129C23.226 19.2751 22.5316 18.5807 21.6776 18.5807ZM20.9034 13.1613H19.316C19.2087 12.6348 18.8843 12.1897 18.4434 11.9129C18.7055 11.7217 19.0233 11.6129 19.3551 11.6129C20.209 11.6129 20.9034 12.3074 20.9034 13.1613ZM17.4196 12.3871C17.9236 12.3871 18.3494 12.7119 18.5096 13.1613H16.3299C16.4898 12.7119 16.9156 12.3871 17.4196 12.3871ZM17.4196 10.0645C18.0091 10.0645 18.5325 10.404 18.7926 10.9088C18.3366 11.023 17.9232 11.275 17.61 11.6323C17.5465 11.6257 17.4846 11.6129 17.4196 11.6129C17.3545 11.6129 17.293 11.6257 17.2295 11.6323C16.916 11.2754 16.5025 11.0234 16.0465 10.9088C16.3067 10.404 16.83 10.0645 17.4196 10.0645ZM15.4841 11.6129C15.8154 11.6129 16.1333 11.7217 16.3953 11.9129C15.9548 12.1897 15.6304 12.6348 15.5232 13.1613H13.9357C13.9357 12.3074 14.6302 11.6129 15.4841 11.6129ZM13.1615 14.3226V13.9355H21.6776V14.3226C21.6776 16.6703 19.7673 18.5807 17.4196 18.5807C15.0718 18.5807 13.1615 16.6703 13.1615 14.3226ZM9.82551 13.1613H7.90241L9.18448 11.8792L9.82551 13.1613ZM5.87983 12.1409L7.01635 12.9523L6.8077 13.1613H5.06383L5.87983 12.1409ZM7.20486 10.2426L8.04525 11.9237L7.57106 12.3979L6.10977 11.3539L5.96693 11.0683L7.20486 10.2426ZM4.62254 10.1102L5.34951 11.5645L5.21441 11.7333L3.97764 11.2386L4.62254 10.1102ZM2.52448 11.4914L4.70887 12.3654L4.07209 13.1613H3.00216L2.52448 11.4914ZM2.3228 14.3226V13.9355H10.8389V14.3226C10.8389 16.6703 8.92861 18.5807 6.58086 18.5807C4.23312 18.5807 2.3228 16.6703 2.3228 14.3226ZM22.4518 22.0645C22.4518 22.7048 21.9308 23.2258 21.2905 23.2258C20.6503 23.2258 20.1293 22.7048 20.1293 22.0645V20.129H19.3551V22.0645C19.3551 22.7048 18.834 23.2258 18.1938 23.2258C17.5535 23.2258 17.0325 22.7048 17.0325 22.0645V20.129H16.2583V22.0645C16.2583 22.7048 15.7373 23.2258 15.097 23.2258C14.4567 23.2258 13.9357 22.7048 13.9357 22.0645V20.129H13.1615V22.0645C13.1615 22.7048 12.6405 23.2258 12.0002 23.2258C11.36 23.2258 10.8389 22.7048 10.8389 22.0645V20.129H10.0647V22.0645C10.0647 22.7048 9.5437 23.2258 8.90345 23.2258C8.26319 23.2258 7.74216 22.7048 7.74216 22.0645V20.129H6.96796V22.0645C6.96796 22.7048 6.44693 23.2258 5.80667 23.2258C5.16641 23.2258 4.64538 22.7048 4.64538 22.0645V20.129H3.87119V22.0645C3.87119 22.7048 3.35016 23.2258 2.7099 23.2258C2.06964 23.2258 1.54861 22.7048 1.54861 22.0645V20.129C1.54861 19.7021 1.89583 19.3548 2.3228 19.3548H21.6776C22.1046 19.3548 22.4518 19.7021 22.4518 20.129V22.0645Z" fill="#E24A75"/>
<path d="M2.70985 22.4516C2.92364 22.4516 3.09695 22.2783 3.09695 22.0645C3.09695 21.8507 2.92364 21.6774 2.70985 21.6774C2.49606 21.6774 2.32275 21.8507 2.32275 22.0645C2.32275 22.2783 2.49606 22.4516 2.70985 22.4516Z" fill="#E24A75"/>
<path d="M5.80653 22.4516C6.02032 22.4516 6.19363 22.2783 6.19363 22.0645C6.19363 21.8507 6.02032 21.6774 5.80653 21.6774C5.59274 21.6774 5.41943 21.8507 5.41943 22.0645C5.41943 22.2783 5.59274 22.4516 5.80653 22.4516Z" fill="#E24A75"/>
<path d="M8.90321 22.4516C9.117 22.4516 9.29031 22.2783 9.29031 22.0645C9.29031 21.8507 9.117 21.6774 8.90321 21.6774C8.68942 21.6774 8.51611 21.8507 8.51611 22.0645C8.51611 22.2783 8.68942 22.4516 8.90321 22.4516Z" fill="#E24A75"/>
<path d="M11.9999 22.4516C12.2137 22.4516 12.387 22.2783 12.387 22.0645C12.387 21.8507 12.2137 21.6774 11.9999 21.6774C11.7861 21.6774 11.6128 21.8507 11.6128 22.0645C11.6128 22.2783 11.7861 22.4516 11.9999 22.4516Z" fill="#E24A75"/>
<path d="M15.0966 22.4516C15.3104 22.4516 15.4837 22.2783 15.4837 22.0645C15.4837 21.8507 15.3104 21.6774 15.0966 21.6774C14.8828 21.6774 14.7095 21.8507 14.7095 22.0645C14.7095 22.2783 14.8828 22.4516 15.0966 22.4516Z" fill="#E24A75"/>
<path d="M18.1937 22.4516C18.4075 22.4516 18.5808 22.2783 18.5808 22.0645C18.5808 21.8507 18.4075 21.6774 18.1937 21.6774C17.9799 21.6774 17.8066 21.8507 17.8066 22.0645C17.8066 22.2783 17.9799 22.4516 18.1937 22.4516Z" fill="#E24A75"/>
<path d="M21.2904 22.4516C21.5042 22.4516 21.6775 22.2783 21.6775 22.0645C21.6775 21.8507 21.5042 21.6774 21.2904 21.6774C21.0766 21.6774 20.9033 21.8507 20.9033 22.0645C20.9033 22.2783 21.0766 22.4516 21.2904 22.4516Z" fill="#E24A75"/>
<path d="M9.0936 15.336C8.67592 16.3665 7.6896 17.0323 6.58057 17.0323V17.8064C8.00663 17.8064 9.27476 16.951 9.81128 15.6271L9.0936 15.336Z" fill="#E24A75"/>
<path d="M19.9325 15.3364C19.5152 16.3664 18.5285 17.0322 17.4194 17.0322V17.8064C18.8459 17.8064 20.1136 16.9509 20.6501 15.6267L19.9325 15.3364Z" fill="#E24A75"/>
</g>
<defs>
<clipPath id="clip0_1_388">
<rect width="24" height="24" fill="white"/>
</clipPath>
</defs>
</svg>
