<svg width="170" height="170" viewBox="0 0 170 170" fill="none" xmlns="http://www.w3.org/2000/svg">
<path d="M156.264 110.364H157.165C157.624 110.364 158.049 110.109 158.27 109.718C158.491 109.31 158.491 108.817 158.253 108.426C158.151 108.273 150.161 95.523 135.048 96.118C135.32 94.554 135.439 92.242 134.351 90.219C133.399 88.434 131.75 87.244 129.438 86.7C125.12 85.663 121.176 74.851 119.425 67.32H126.191C126.888 67.32 127.466 66.742 127.466 66.045V64.702C130.39 64.107 132.6 61.523 132.6 58.429C132.6 55.335 130.39 52.751 127.466 52.156V50.813C127.466 50.116 126.888 49.538 126.191 49.538H119.442C119.646 43.112 118.133 38.063 114.92 34.527C111.826 31.127 108.001 30.09 106.08 29.767V28.475C106.08 26.129 104.176 24.225 101.694 24.225C99.348 24.225 97.444 26.129 97.444 28.475V38.403C97.444 40.749 99.348 42.653 101.694 42.653H101.847C104.193 42.653 106.097 40.749 106.097 38.403V37.825C108.307 38.913 112.455 41.99 112.285 49.589C107.695 49.844 104.04 53.618 104.04 58.259V58.633C104.04 61.778 105.723 64.498 108.222 66.045C108.222 66.215 108.239 66.385 108.307 66.555C108.392 66.759 116.212 86.428 115.124 106.114C113.968 107.644 113.033 109.242 112.268 110.789H82.535C78.336 105.06 82.416 96.101 83.793 93.432C84.32 92.429 84.592 91.273 84.592 90.117V85.561H86.836C87.533 85.561 88.111 84.983 88.111 84.286V84.031C88.111 77.639 82.909 72.437 76.517 72.437H54.791C55.165 71.757 55.386 70.992 55.386 70.159V39.61C55.386 36.941 53.227 34.782 50.558 34.782H13.668C10.999 34.782 8.83998 36.941 8.83998 39.61V70.125C8.83998 72.794 10.999 74.953 13.668 74.953H31.331C30.498 76.041 29.988 77.367 29.988 78.846V79.101C29.988 82.246 32.249 84.847 35.241 85.408C33.082 86.19 31.093 87.108 29.274 88.145H14.518C12.274 88.145 10.455 89.964 10.455 92.208V96.288C10.455 98.532 12.274 100.351 14.518 100.351H16.371C9.68998 110.517 8.83998 121.363 8.83998 121.55C8.82298 121.907 8.94198 122.247 9.17998 122.502C9.41798 122.757 9.75798 122.91 10.115 122.91H22.066C22.049 123.301 21.998 123.692 21.998 124.083C21.998 136.034 31.722 145.775 43.69 145.775C55.658 145.775 65.382 136.051 65.382 124.083C65.382 123.692 65.331 123.301 65.314 122.91H117.878C117.861 123.301 117.81 123.692 117.81 124.083C117.81 136.034 127.534 145.775 139.502 145.775C151.453 145.775 161.194 136.051 161.194 124.083C161.177 119 159.426 114.223 156.264 110.364ZM130.033 58.446C130.033 60.129 128.945 61.54 127.449 62.067V54.825C128.945 55.352 130.033 56.763 130.033 58.446ZM103.496 38.386C103.496 39.321 102.731 40.086 101.796 40.086H101.66C100.725 40.086 99.96 39.321 99.96 38.386V28.458C99.96 27.523 100.725 26.758 101.796 26.758C102.731 26.758 103.496 27.523 103.496 28.458V38.386ZM106.046 35.054V32.351C107.695 32.691 110.619 33.626 112.999 36.244C115.77 39.287 117.062 43.775 116.858 49.538H114.784C114.954 39.338 108.222 35.887 106.046 35.054ZM106.556 58.616V58.242C106.556 54.842 109.327 52.071 112.727 52.071H124.916V64.77H112.71C109.31 64.787 106.556 62.016 106.556 58.616ZM111.248 67.184C111.724 67.269 112.217 67.337 112.71 67.337H116.79C117.81 71.859 121.856 87.499 128.826 89.182C130.424 89.573 131.495 90.304 132.09 91.426C133.008 93.109 132.651 95.285 132.379 96.373C130.288 96.662 128.078 97.189 125.732 98.056C122.485 99.246 119.85 101.031 117.725 103.071C117.929 87.04 112.999 72.029 111.248 67.184ZM13.668 37.332H50.558C51.816 37.332 52.836 38.352 52.836 39.61V42.993H11.373V39.61C11.373 38.352 12.41 37.332 13.668 37.332ZM11.373 70.125V45.543H52.836V70.125C52.836 71.383 51.816 72.403 50.558 72.403H13.668C12.41 72.403 11.373 71.383 11.373 70.125ZM32.521 79.101V78.846C32.521 76.704 34.272 74.953 36.414 74.953H76.517C81.158 74.953 85 78.472 85.51 82.977H36.414C34.272 82.977 32.521 81.243 32.521 79.101ZM18.139 97.801H14.518C13.685 97.801 13.005 97.121 13.005 96.288V92.208C13.005 91.375 13.685 90.695 14.518 90.695H25.364C22.508 92.837 20.145 95.268 18.19 97.801C18.156 97.801 18.156 97.801 18.139 97.801ZM67.728 120.36H21.913C22.134 117.657 24.072 101.235 39.576 97.172C46.24 95.421 55.182 95.336 58.99 95.523C64.787 95.812 67.745 99.144 67.745 105.417V120.36H67.728ZM57.664 124.083C57.664 131.699 51.459 137.904 43.843 137.904C36.227 137.904 30.022 131.699 30.022 124.083C30.022 123.692 30.073 123.301 30.107 122.91H35.462C35.411 123.301 35.377 123.692 35.377 124.083C35.377 128.758 39.168 132.549 43.843 132.549C48.518 132.549 52.309 128.758 52.309 124.083C52.309 123.692 52.275 123.301 52.207 122.91H57.562C57.613 123.301 57.664 123.692 57.664 124.083ZM49.64 122.91C49.725 123.301 49.776 123.692 49.776 124.083C49.776 127.347 47.124 129.999 43.86 129.999C40.596 129.999 37.944 127.347 37.944 124.083C37.944 123.692 37.995 123.284 38.08 122.91H49.64ZM62.815 124.083C62.815 134.64 54.23 143.225 43.673 143.225C33.116 143.225 24.531 134.64 24.531 124.083C24.531 123.692 24.565 123.301 24.599 122.91H27.557C27.523 123.301 27.472 123.692 27.472 124.083C27.472 133.11 34.816 140.454 43.843 140.454C52.87 140.454 60.214 133.11 60.214 124.083C60.214 123.692 60.146 123.301 60.129 122.91H62.747C62.781 123.301 62.815 123.692 62.815 124.083ZM70.278 120.36V105.4C70.278 97.852 66.198 93.33 59.109 92.973C55.182 92.786 45.9 92.871 38.93 94.707C21.59 99.246 19.55 118.099 19.363 120.36H11.509C12.121 115.481 15.266 99.144 29.971 90.593C30.022 90.576 30.056 90.542 30.107 90.508C34.493 87.992 39.899 86.156 46.563 85.527H82.025V90.1C82.025 90.848 81.855 91.596 81.515 92.242C79.458 96.203 75.293 106.148 80.92 112.863C81.158 113.152 81.515 113.322 81.889 113.322H111.078C109.854 116.45 109.327 119.119 109.123 120.36H70.278ZM126.616 100.453C141.882 94.826 151.266 103.666 154.649 107.814H139.417C134.725 107.814 130.305 109.854 127.262 113.407C127.245 113.424 127.228 113.424 127.211 113.441C127.177 113.475 127.16 113.509 127.126 113.543L121.38 120.36H111.724C112.404 116.773 115.447 104.567 126.616 100.453ZM141.406 110.381C148.291 111.248 153.476 117.13 153.476 124.083C153.476 131.699 147.271 137.904 139.655 137.904C132.039 137.904 125.834 131.699 125.834 124.083C125.834 120.819 126.99 117.674 129.081 115.192L129.098 115.158C131.665 112.115 135.422 110.364 139.4 110.364H141.338C141.372 110.381 141.389 110.381 141.406 110.381ZM139.485 143.225C128.928 143.225 120.343 134.64 120.343 124.083C120.343 123.692 120.377 123.301 120.411 122.91H121.992C122.366 122.91 122.723 122.74 122.961 122.451L123.454 121.873C123.352 122.604 123.284 123.335 123.284 124.083C123.284 133.11 130.628 140.454 139.655 140.454C148.682 140.454 156.026 133.11 156.026 124.083C156.026 118.388 153.085 113.305 148.58 110.364H152.813C156.553 114.002 158.627 118.864 158.627 124.083C158.627 134.64 150.042 143.225 139.485 143.225Z" fill="white"/>
<path d="M131.189 124.083C131.189 128.758 134.98 132.549 139.655 132.549C144.33 132.549 148.121 128.758 148.121 124.083C148.121 119.408 144.33 115.617 139.655 115.617C134.997 115.617 131.189 119.425 131.189 124.083ZM139.655 118.167C142.919 118.167 145.571 120.819 145.571 124.083C145.571 127.347 142.919 129.999 139.655 129.999C136.391 129.999 133.739 127.347 133.739 124.083C133.739 120.819 136.391 118.167 139.655 118.167Z" fill="white"/>
<path d="M46.9199 66.8445L46.9029 66.1305C45.9509 58.7695 42.2619 52.1225 36.5329 47.3965L36.2949 47.2095C36.0229 47.0055 35.6999 46.9035 35.3599 46.9375C35.0199 46.9715 34.7139 47.1415 34.5099 47.4135L17.3739 68.9695C17.0509 69.3775 16.9999 69.9215 17.2549 70.3805C17.4759 70.7885 17.9179 71.0435 18.3769 71.0435H18.5129L45.7809 68.1195C46.4269 68.0345 46.9199 67.4905 46.9199 66.8445ZM33.1159 53.2445C36.9239 56.6275 39.4229 61.1155 40.2899 66.1305L21.2669 68.1705L33.1159 53.2445ZM42.8229 65.8585C41.8709 60.1635 39.0319 55.0635 34.6969 51.2555L35.6829 50.0145C40.3239 54.1285 43.3499 59.6875 44.2849 65.7055L42.8229 65.8585Z" fill="white"/>
</svg>
