<svg xmlns="http://www.w3.org/2000/svg" width="24" height="24" viewBox="0 0 24 24" fill="none">
  <g clip-path="url(#clip0_166_2295)">
    <path d="M22.2769 12.3984C22.1194 12.1563 22.1194 11.8437 22.2769 11.6016L23.1533 10.2544C23.9517 9.02734 23.4138 7.37876 22.0492 6.85643L20.5483 6.28175C20.2786 6.17843 20.0948 5.92545 20.0799 5.63703L19.9972 4.03204C19.9218 2.5703 18.5177 1.55227 17.1066 1.93196L15.5546 2.34924C15.2758 2.42414 14.9783 2.32754 14.7968 2.10296L13.7864 0.853044C12.8662 -0.285262 11.1321 -0.283434 10.2135 0.853044L9.20304 2.10301C9.02154 2.32763 8.72412 2.42414 8.44522 2.34929L6.89315 1.93201C5.47926 1.55176 4.07771 2.57316 4.00252 4.03209L3.91979 5.63708C3.90488 5.92545 3.72109 6.17848 3.45142 6.28175L1.95058 6.85643C0.583198 7.37983 0.0495758 9.02978 0.846399 10.2545L1.72291 11.6016C1.88036 11.8436 1.88036 12.1564 1.72291 12.3984L0.84654 13.7455C0.0480758 14.9727 0.586198 16.6214 1.95063 17.1436L3.45156 17.7182C3.72123 17.8216 3.90507 18.0745 3.91993 18.363L4.00266 19.9679C4.07804 21.43 5.4824 22.4476 6.89329 22.068L8.44526 21.6508C8.72421 21.5759 9.02159 21.6725 9.20313 21.897L10.2135 23.1469C11.1339 24.2855 12.8679 24.2832 13.7865 23.1469L14.7968 21.897C14.9783 21.6725 15.2759 21.576 15.5547 21.6508L17.1067 22.068C18.5202 22.4484 19.9221 21.4271 19.9974 19.9679L20.0801 18.363C20.095 18.0746 20.2788 17.8216 20.5485 17.7183L22.0493 17.1436C23.4166 16.6202 23.9503 14.9703 23.1535 13.7455L22.2769 12.3984ZM21.4891 15.6806L19.9882 16.2552C19.1402 16.5799 18.5622 17.3755 18.5155 18.2822L18.4327 19.8872C18.4088 20.3523 17.9623 20.6757 17.5134 20.5551L15.9613 20.1379C15.0846 19.902 14.1491 20.2061 13.5784 20.9121L12.5681 22.162C12.2754 22.5241 11.724 22.5234 11.4318 22.162L10.4215 20.9121C9.9791 20.3648 9.3176 20.0591 8.63407 20.0591C8.43584 20.0591 8.23568 20.0848 8.03848 20.1379L6.48641 20.5551C6.0366 20.6759 5.59111 20.3513 5.56711 19.8872L5.48437 18.2822C5.43764 17.3755 4.85953 16.5798 4.01166 16.2552L2.51073 15.6805C2.07588 15.514 1.90624 14.9894 2.15964 14.5999L3.03611 13.2528C3.53124 12.4917 3.53124 11.5082 3.03611 10.7472L2.15964 9.40009C1.90567 9.00981 2.07677 8.48561 2.51078 8.31944L4.01171 7.74475C4.85963 7.4201 5.43769 6.62445 5.48442 5.71775L5.56715 4.11276C5.59111 3.64772 6.03759 3.32428 6.48646 3.44484L8.03853 3.86212C8.91532 4.09795 9.85071 3.79392 10.4215 3.08784L11.4318 1.83793C11.7246 1.47587 12.2761 1.47662 12.5681 1.83793L13.5785 3.08789C14.1494 3.79396 15.0846 4.09799 15.9614 3.86212L17.5135 3.44484C17.9633 3.32405 18.4088 3.64865 18.4328 4.11276L18.5155 5.71775C18.5622 6.62445 19.1403 7.42015 19.9882 7.74475L21.4891 8.31948C21.9239 8.48589 22.0936 9.01061 21.8402 9.40009L20.9638 10.7472C20.4686 11.5082 20.4686 12.4917 20.9638 13.2528L21.8402 14.5999C22.0941 14.9902 21.9231 15.5144 21.4891 15.6806Z" fill="#E6007E"/>
    <path d="M15.9134 8.00869C15.6075 7.70283 15.1115 7.70283 14.8056 8.00869L7.49477 15.3196C7.18891 15.6254 7.18891 16.1214 7.49482 16.4273C7.64777 16.5802 7.84825 16.6567 8.04869 16.6567C8.24912 16.6567 8.44965 16.5802 8.60256 16.4273L15.9134 9.11639C16.2193 8.81058 16.2193 8.31459 15.9134 8.00869Z" fill="#E6007E"/>
    <path d="M8.83174 7.7793C7.96788 7.7793 7.26514 8.48209 7.26514 9.3459C7.26514 10.2098 7.96798 10.9125 8.83174 10.9125C9.69559 10.9125 10.3983 10.2097 10.3983 9.3459C10.3984 8.48209 9.69559 7.7793 8.83174 7.7793Z" fill="#E6007E"/>
    <path d="M14.5761 13.5234C13.7123 13.5234 13.0095 14.2262 13.0095 15.09C13.0095 15.9539 13.7123 16.6566 14.5761 16.6566C15.4399 16.6566 16.1427 15.9538 16.1427 15.09C16.1428 14.2262 15.44 13.5234 14.5761 13.5234Z" fill="#E6007E"/>
  </g>
  <defs>
    <clipPath id="clip0_166_2295">
      <rect width="24" height="24" fill="white"/>
    </clipPath>
  </defs>
</svg>