<svg width="24" height="24" viewBox="0 0 24 24" fill="none" xmlns="http://www.w3.org/2000/svg">
<path d="M10.6915 14.2638C10.5715 14.2638 10.4516 14.218 10.36 14.1265C9.8218 13.5883 9.52539 12.8727 9.52539 12.1116C9.52539 11.3505 9.8218 10.6349 10.36 10.0967C10.543 9.91372 10.8398 9.91372 11.0229 10.0967C11.206 10.2798 11.206 10.5766 11.0229 10.7597C10.6618 11.1208 10.4629 11.6009 10.4629 12.1116C10.4629 12.6224 10.6618 13.1024 11.0229 13.4635C11.206 13.6466 11.206 13.9434 11.0229 14.1265C10.9314 14.218 10.8114 14.2638 10.6915 14.2638Z" fill="#E6007E"/>
<path d="M18.7539 11.8831C18.495 11.8831 18.2852 11.6732 18.2852 11.4143V10.8397C18.2852 10.5808 18.495 10.371 18.7539 10.371C19.0128 10.371 19.2227 10.5808 19.2227 10.8397V11.4143C19.2227 11.6732 19.0128 11.8831 18.7539 11.8831Z" fill="#E6007E"/>
<path d="M13.8056 15.19C13.6856 15.19 13.5656 15.1442 13.4741 15.0527C12.6885 14.2671 12.2559 13.2225 12.2559 12.1115C12.2559 11.0004 12.6885 9.95596 13.4742 9.17034C13.6572 8.98733 13.954 8.98733 14.1371 9.17034C14.3202 9.3534 14.3202 9.65023 14.1371 9.83333C13.5285 10.4418 13.1934 11.2509 13.1934 12.1115C13.1934 12.9722 13.5285 13.7812 14.1371 14.3898C14.3202 14.5728 14.3202 14.8697 14.1371 15.0528C14.0456 15.1442 13.9255 15.19 13.8056 15.19Z" fill="#E6007E"/>
<path d="M9.2417 15.825C9.04584 15.825 8.8663 15.698 8.80035 15.514C8.73509 15.332 8.79135 15.124 8.93845 14.9989C9.09183 14.8685 9.31797 14.8517 9.48903 14.958C9.65263 15.0597 9.73912 15.2587 9.70105 15.4476C9.65755 15.6639 9.46287 15.825 9.2417 15.825Z" fill="#E6007E"/>
<path d="M23.8274 12.1921C23.7432 12.0616 23.6587 11.9254 23.5781 11.7925C22.4387 9.90819 21.027 8.52445 19.3823 7.67995C18.9577 7.45396 18.5305 7.27662 18.1123 7.15263C18.0022 7.11601 17.8909 7.08175 17.778 7.04992C17.327 5.5983 15.9849 4.59906 14.4553 4.59906H10.8417C10.2511 4.59906 9.77061 5.0804 9.77061 5.67204C9.77061 6.49231 10.0557 7.27348 10.5685 7.89404C8.94777 8.49689 7.2944 9.26643 5.9416 10.0357C5.20478 8.78312 3.84505 7.94097 2.29288 7.94097H0.468777C0.209871 7.94097 0 8.15089 0 8.40974C0 9.67703 0.19023 10.6265 0.581564 11.3124C0.790076 11.6779 1.05386 11.9694 1.37122 12.1862C1.05381 12.403 0.790076 12.6945 0.581564 13.06C0.19023 13.7459 0 14.6953 0 15.9626C0 16.2215 0.209871 16.4314 0.468777 16.4314H2.29288C3.85653 16.4314 5.22484 15.5767 5.95782 14.3088C6.3268 14.513 6.72357 14.7193 7.14209 14.9244C7.20847 14.9569 7.27874 14.9723 7.34802 14.9723C7.52128 14.9723 7.68793 14.8758 7.76931 14.7097C7.88323 14.4772 7.78713 14.1964 7.55462 14.0825C7.1209 13.8699 6.71213 13.6565 6.33561 13.446C6.45927 13.0478 6.52593 12.6246 6.52593 12.1861C6.52593 11.7364 6.45585 11.3028 6.32605 10.8958C9.20569 9.24346 13.5445 7.58742 15.6629 7.66955C16.2127 7.69425 16.7158 7.75899 17.1848 7.86596C16.4504 8.9681 15.9727 10.4337 15.851 11.9982C15.8453 12.0712 15.8373 12.145 15.829 12.223C15.8115 12.3862 15.7933 12.555 15.7934 12.7322C15.7827 14.0894 16.2454 15.4078 17.0837 16.4616C16.6177 16.525 16.1414 16.557 15.6599 16.557C14.5801 16.557 13.0634 16.2341 11.2738 15.6234C11.0289 15.5398 10.7624 15.6706 10.6788 15.9157C10.5951 16.1607 10.726 16.4271 10.971 16.5107C11.1087 16.5577 11.2526 16.6056 11.4016 16.6537C11.1213 17.164 10.9752 17.7338 10.9752 18.3279C10.9752 18.9195 11.4557 19.4009 12.0462 19.4009H14.4553C15.8248 19.4009 17.0833 18.5727 17.6374 17.3238C17.7916 17.2966 17.9446 17.2662 18.0963 17.2326C18.0979 17.2323 18.0995 17.232 18.101 17.2317C18.5964 17.1322 19.0935 16.9819 19.5788 16.785C21.347 16.1018 22.7746 14.9536 23.8223 13.372C24.0572 13.026 24.0595 12.5524 23.8274 12.1921ZM0.947585 8.87852H2.29288C3.95155 8.87852 5.32793 10.1147 5.55542 11.7174H3.06786C2.07377 11.7174 1.05878 11.3672 0.947585 8.87852ZM2.29288 15.4938H0.947585C1.05878 13.0051 2.07377 12.6549 3.06786 12.6549H5.55538C5.32793 14.2576 3.95155 15.4938 2.29288 15.4938ZM11.5349 7.55343C11.0078 7.06918 10.7082 6.39105 10.7082 5.672C10.7082 5.59732 10.768 5.53657 10.8417 5.53657H14.4553C15.383 5.53657 16.2164 6.04027 16.6613 6.81881C16.3549 6.77639 16.0361 6.74788 15.7023 6.73288C14.639 6.6913 13.1371 7.02132 11.5349 7.55343ZM14.4553 18.4635H12.0462C11.9726 18.4635 11.9127 18.4027 11.9127 18.328C11.9127 17.8263 12.0552 17.3484 12.3265 16.9339C13.4133 17.2395 14.6292 17.4946 15.6598 17.4946C15.9309 17.4946 16.2007 17.4853 16.4683 17.4667C15.993 18.0814 15.2496 18.4635 14.4553 18.4635ZM23.0465 12.8457C23.0451 12.8477 23.0436 12.8498 23.0423 12.8519C22.1032 14.2705 20.8231 15.3001 19.2373 15.912C19.2347 15.9129 19.2321 15.914 19.2295 15.915C18.8755 16.0589 18.515 16.1747 18.1548 16.2603C17.2368 15.322 16.7206 14.0521 16.7309 12.7359C16.7309 12.6053 16.7456 12.4682 16.7612 12.3231C16.7699 12.2419 16.7789 12.158 16.7857 12.0713C16.9047 10.5413 17.3918 9.13128 18.1342 8.14629C18.4014 8.24277 18.673 8.36423 18.9447 8.50903C18.9469 8.51016 18.949 8.51133 18.9512 8.51241C20.4403 9.27623 21.727 10.543 22.776 12.2778C22.8174 12.3409 22.9966 12.6415 23.0439 12.7074C23.0691 12.7525 23.0706 12.8105 23.0465 12.8457Z" fill="#E6007E"/>
</svg>
