<svg width="24" height="24" viewBox="0 0 24 24" fill="none" xmlns="http://www.w3.org/2000/svg">
<path d="M21.4701 10.1149C21.3319 9.97862 21.1093 9.98022 20.973 10.1185C20.8367 10.2567 20.8383 10.4793 20.9766 10.6156C21.0516 10.6896 21.1245 10.7651 21.1961 10.8415C21.1762 10.8248 21.1559 10.8085 21.1355 10.793C20.8697 10.5903 20.5525 10.4574 20.2424 10.4188C20.2349 10.4179 20.2275 10.4173 20.22 10.4164C20.2992 10.259 20.3272 10.1506 20.3304 10.1373C20.3321 10.1302 20.3336 10.123 20.3349 10.1158C20.3779 9.87465 20.369 9.63226 20.3105 9.41898C20.2816 9.30817 20.2412 9.19877 20.1906 9.09372C20.1894 9.09119 20.1881 9.08866 20.1869 9.08612C20.1352 8.98506 20.0707 8.88531 19.9948 8.78898C19.9583 8.74286 19.9193 8.69809 19.879 8.656C19.8773 8.65413 19.8755 8.6523 19.8737 8.65052C19.8341 8.61086 19.7907 8.57191 19.7406 8.53117C19.65 8.45763 19.5527 8.39317 19.4513 8.3395C19.4488 8.33819 19.4463 8.33692 19.4438 8.33566C19.2288 8.22836 19.0022 8.1693 18.7685 8.15997C18.5854 8.15355 18.442 8.0133 18.428 7.82955C18.4202 7.71358 18.4 7.59752 18.368 7.4845C18.3675 7.48267 18.3669 7.48089 18.3664 7.47906C18.3341 7.37186 18.2881 7.26363 18.2317 7.16121C18.1255 6.9625 17.9677 6.78185 17.7625 6.6243C17.7599 6.62229 17.7572 6.62032 17.7546 6.61839C17.3509 6.32608 16.8578 6.22338 16.4008 6.33639C16.2138 6.37732 16.0383 6.28446 15.9729 6.10783C15.8899 5.88776 15.7597 5.69008 15.5859 5.5203C15.5835 5.51796 15.581 5.51566 15.5786 5.51341C15.3922 5.34152 15.1865 5.21782 14.9669 5.14568C14.7463 5.06674 14.507 5.03777 14.2567 5.05971C14.2548 5.05985 14.2528 5.06004 14.2509 5.06027C14.0164 5.08465 13.7852 5.16223 13.5783 5.28705C13.4184 5.38638 13.219 5.35188 13.0965 5.20638C13.0195 5.11268 12.9341 5.02891 12.8427 4.95738C12.8408 4.95588 12.8389 4.95443 12.837 4.95298C12.7449 4.88393 12.6439 4.82346 12.5369 4.77326C12.4843 4.74865 12.4296 4.72615 12.3743 4.70651C12.3724 4.7058 12.3704 4.70515 12.3685 4.70449C12.3027 4.68241 12.2401 4.66793 12.191 4.65738C12.0758 4.6332 11.9568 4.6197 11.8373 4.61726C11.8324 4.61716 11.8276 4.61716 11.8227 4.61726C11.7032 4.61974 11.5842 4.63324 11.4671 4.6578C11.4198 4.66798 11.357 4.68251 11.2914 4.70459C11.2895 4.70524 11.2876 4.7059 11.2857 4.70655C11.2302 4.72624 11.1755 4.74874 11.1231 4.77335C11.0162 4.82346 10.9152 4.88393 10.823 4.95298C10.8211 4.95448 10.8191 4.95598 10.8171 4.95752C10.7258 5.02905 10.6404 5.11282 10.5662 5.20319C10.441 5.35198 10.2417 5.38652 10.0777 5.2848C9.87472 5.16232 9.64348 5.08474 9.40906 5.06037C9.40709 5.06018 9.40517 5.05999 9.4032 5.0598C9.15261 5.03791 8.91364 5.06688 8.693 5.14577C8.47339 5.21791 8.26766 5.34166 8.08128 5.5136C8.07884 5.51585 8.07641 5.51815 8.07406 5.52044C7.9002 5.69022 7.76999 5.88794 7.68627 6.11004C7.62158 6.28469 7.44603 6.3775 7.259 6.33654C6.80206 6.22361 6.30903 6.32627 5.9054 6.61858C5.90268 6.62055 5.9001 6.62247 5.89747 6.62449C5.69226 6.78204 5.53443 6.96269 5.42826 7.16144C5.41822 7.18024 5.41035 7.19964 5.40402 7.21924C4.12827 7.5048 3.12112 8.55194 2.91553 9.86683L2.60737 9.82609C2.29584 9.7848 1.95811 9.91178 1.70447 10.1655C1.4512 10.4188 1.32459 10.7557 1.36584 11.0667L1.46048 11.7809C0.554952 12.3737 0 13.3895 0 14.4781C0 15.535 0.510608 16.5105 1.37236 17.1153C1.75415 18.4237 2.9647 19.3827 4.39607 19.3827H17.8191C18.0133 19.3827 18.1707 19.2253 18.1707 19.0312C18.1707 18.837 18.0133 18.6796 17.8191 18.6796H4.39602C3.04701 18.6796 1.94948 17.5836 1.94948 16.2363C1.94948 11.9844 5.37557 8.45659 9.58681 8.37231C11.702 8.32989 13.6997 9.12109 15.2084 10.5999C16.7149 12.0766 17.5446 14.0506 17.5446 16.1584C17.5446 16.9852 17.858 17.7401 18.3721 18.3113C18.386 18.3301 18.4021 18.3478 18.4202 18.364C18.4216 18.3653 18.4232 18.3664 18.4246 18.3676C19.0136 18.9918 19.8479 19.3826 20.7723 19.3826C22.5521 19.3826 24 17.9362 24 16.1584C24 13.8693 23.1015 11.723 21.4701 10.1149ZM1.24865 16.0426C0.899717 15.6038 0.703124 15.0567 0.703124 14.4781C0.703124 13.7453 1.02492 13.0545 1.56656 12.5806L1.58981 12.7561C1.61273 12.9291 1.68609 13.0809 1.79737 13.197C1.45772 14.0978 1.27045 15.0575 1.24865 16.0426ZM2.23007 12.2353L2.06292 10.9742C2.05059 10.8814 2.10511 10.7591 2.20176 10.6624C2.29875 10.5654 2.42184 10.5107 2.51521 10.5229L3.32371 10.6299C2.89617 11.1267 2.53012 11.665 2.23007 12.2353ZM3.92268 9.99981L3.61246 9.95879C3.80845 8.75673 4.86276 7.84413 6.10386 7.84413C6.47071 7.84413 6.82696 7.92241 7.15419 8.0725C5.95775 8.45781 4.85624 9.11111 3.92268 9.99981ZM9.5727 7.66938C9.30626 7.67472 9.04194 7.69277 8.78019 7.72253L9.19212 7.18553C9.24926 7.11105 9.37479 7.06291 9.512 7.06291C9.64925 7.06291 9.77478 7.11105 9.83192 7.18558L10.2112 7.68011C9.99973 7.66877 9.78678 7.66516 9.5727 7.66938ZM10.3899 6.75747C10.1988 6.50838 9.87064 6.35965 9.512 6.35965C9.15345 6.35965 8.82528 6.50838 8.63417 6.75747L7.91375 7.69666C7.45194 7.38321 6.92417 7.19721 6.37063 7.15202C6.59558 7.00858 6.85546 6.96025 7.09278 7.01964C7.09541 7.0203 7.09799 7.02091 7.10061 7.02152C7.63461 7.14236 8.15783 6.86153 8.34491 6.35599C8.3908 6.23421 8.46378 6.12354 8.56184 6.02688C8.67355 5.92465 8.79251 5.8526 8.91551 5.81271C8.91931 5.81149 8.92301 5.81022 8.92676 5.80887C9.04948 5.76443 9.19203 5.74751 9.33931 5.75997C9.47061 5.77404 9.60026 5.81787 9.71079 5.88447C10.1677 6.16811 10.7538 6.07211 11.1068 5.65277C11.1503 5.59976 11.1977 5.55288 11.2477 5.51341C11.3007 5.47404 11.3592 5.43921 11.4217 5.40991C11.4528 5.39533 11.4852 5.38198 11.5182 5.37012C11.55 5.35962 11.5865 5.35132 11.6133 5.34555C11.6836 5.33083 11.7565 5.32235 11.8301 5.32038C11.9036 5.32235 11.9764 5.33079 12.0449 5.34513C12.0869 5.35418 12.117 5.36191 12.1419 5.37012C12.1748 5.38193 12.2073 5.39533 12.2384 5.40987C12.3008 5.43916 12.3593 5.47399 12.4123 5.51337C12.4623 5.55279 12.5096 5.59966 12.5559 5.65596C12.9063 6.07202 13.4922 6.16816 13.9454 5.88672C14.0597 5.81782 14.1893 5.77399 14.3207 5.75988C14.468 5.74746 14.6105 5.76438 14.7333 5.80882C14.737 5.81013 14.7408 5.81144 14.7445 5.81266C14.8675 5.85255 14.9865 5.9246 15.0982 6.02679C15.1962 6.12344 15.2691 6.23411 15.3143 6.35397C15.5023 6.86153 16.026 7.14222 16.5593 7.02147C16.5619 7.02086 16.5645 7.02025 16.5671 7.0196C16.822 6.95585 17.1027 7.01603 17.3383 7.18507C17.4616 7.28041 17.5535 7.38386 17.6137 7.49641C17.6478 7.55847 17.6743 7.61988 17.6923 7.67899C17.7106 7.74405 17.7221 7.81066 17.7267 7.87999C17.7681 8.4213 18.2053 8.84378 18.7422 8.86263C18.8727 8.86783 19.0019 8.90158 19.1261 8.96294C19.1858 8.99486 19.2435 9.03325 19.2972 9.07684C19.3267 9.10089 19.3517 9.12311 19.3735 9.14472C19.3978 9.17027 19.4213 9.19741 19.443 9.22483C19.4893 9.28351 19.5283 9.34333 19.559 9.40258C19.5891 9.46562 19.613 9.53092 19.6313 9.60076C19.6622 9.71359 19.6671 9.84311 19.6455 9.97633C19.6189 10.0614 19.4118 10.6301 18.5507 10.9722C18.2495 10.7979 17.9167 10.671 17.5617 10.6015L17.7657 9.84133C17.8632 9.47767 17.7625 9.10145 17.4963 8.83502C17.2297 8.56825 16.8528 8.46728 16.4883 8.56469L15.5728 8.8097C15.2327 7.36057 13.9402 6.32693 12.4314 6.32693C11.7429 6.32693 11.0875 6.54058 10.5332 6.94436L10.3899 6.75747ZM14.4831 9.10136C14.4819 9.10169 14.4806 9.10216 14.4794 9.10248C13.4838 8.43297 12.3639 7.98667 11.1798 7.78736L10.9613 7.5026C11.3915 7.19364 11.8987 7.03014 12.4314 7.03014C13.6188 7.03014 14.6351 7.84788 14.8935 8.99153L14.4831 9.10136ZM17.0865 9.65922L16.667 11.223C16.381 10.825 16.0583 10.4486 15.7006 10.0979C15.5368 9.93737 15.3676 9.78465 15.1937 9.63911L16.6701 9.244C16.8413 9.19811 16.9571 9.29031 16.9989 9.33212C17.0405 9.3737 17.1323 9.48887 17.0865 9.65922ZM17.1682 12.0096C17.1925 11.9564 17.213 11.9012 17.2284 11.844L17.3792 11.2821C18.5751 11.4924 19.462 12.538 19.462 13.7646C19.462 14.6481 18.9916 15.4683 18.2442 15.9216C18.2064 14.5285 17.8349 13.1949 17.1682 12.0096ZM18.8572 17.5509C18.8552 17.5516 18.8531 17.5524 18.8511 17.5531C18.8036 17.5712 18.7579 17.5922 18.7139 17.6156C18.5184 17.3411 18.3764 17.0262 18.3036 16.6859C18.3054 16.685 18.3074 16.6845 18.3093 16.6836C19.4366 16.154 20.165 15.0083 20.165 13.7647C20.165 12.8642 19.7909 12.0404 19.1832 11.4507C19.3726 11.3463 19.5313 11.2323 19.6649 11.1166C19.8169 11.0949 19.9774 11.0946 20.1555 11.1167C20.3441 11.14 20.5407 11.2237 20.7093 11.3523C20.7203 11.3607 20.7311 11.3693 20.7417 11.3782C20.7925 11.4227 20.84 11.4731 20.8825 11.5279C20.9036 11.5553 20.9237 11.5838 20.9422 11.6127C20.9587 11.6403 20.9745 11.6704 20.9904 11.7039C21.0211 11.7692 21.0456 11.8368 21.0633 11.9051C21.0779 11.9664 21.0863 12.0339 21.0885 12.103C21.0901 12.1804 21.0856 12.2424 21.074 12.2994C21.0607 12.3662 21.0405 12.4314 21.0146 12.4921C20.9642 12.609 20.9367 12.7334 20.9309 12.8688C20.9246 12.9844 20.9391 13.1005 20.9764 13.2338C21.0053 13.3423 21.0567 13.4513 21.1324 13.5652C21.2007 13.6693 21.2906 13.7634 21.3995 13.8451C21.4493 13.884 21.4962 13.9303 21.539 13.9831C21.5753 14.0311 21.6087 14.0889 21.6412 14.1593C21.6658 14.2204 21.6854 14.2896 21.6995 14.3653C21.7078 14.437 21.7148 14.5188 21.7075 14.5904C21.6995 14.6631 21.6879 14.7467 21.6625 14.8149C21.6616 14.8174 21.6607 14.82 21.6598 14.8226C21.6469 14.8598 21.6323 14.8964 21.6166 14.9313C21.6018 14.9616 21.5814 14.9946 21.565 15.0203C21.5435 15.0534 21.5239 15.0808 21.5053 15.1036C21.4822 15.1297 21.458 15.1544 21.4336 15.1768C21.4082 15.1999 21.384 15.2198 21.3596 15.2376C21.3324 15.2556 21.3044 15.272 21.2754 15.2868C21.1677 15.3424 21.0692 15.4145 20.9745 15.5074C20.9731 15.5088 20.9716 15.5102 20.9702 15.5116C20.9258 15.5567 20.8854 15.6058 20.8501 15.6577C20.8116 15.712 20.782 15.7608 20.7575 15.8105C20.7286 15.8681 20.709 15.9236 20.6921 15.9752C20.6718 16.0351 20.657 16.098 20.6479 16.1618C20.6476 16.164 20.6473 16.1661 20.647 16.1683C20.6305 16.302 20.6329 16.4243 20.6541 16.5412C20.6602 16.575 20.6641 16.6066 20.6657 16.6353C20.6665 16.6673 20.6654 16.7002 20.6626 16.7325C20.6594 16.768 20.6547 16.8013 20.6486 16.8316C20.6403 16.8649 20.6301 16.8989 20.6171 16.9352C20.5725 17.0645 20.4871 17.1911 20.3699 17.3014C20.3137 17.3517 20.2516 17.3965 20.1852 17.4346C20.1195 17.4678 20.0503 17.5 19.9868 17.5152C19.9843 17.5158 19.9817 17.5164 19.9792 17.5171C19.8479 17.5515 19.7128 17.5522 19.5885 17.5188C19.4699 17.4848 19.3474 17.4713 19.2139 17.4776C19.0658 17.4817 18.9395 17.5213 18.8572 17.5509ZM20.7722 18.6796C20.2077 18.6796 19.6858 18.4935 19.2649 18.1797C19.3137 18.1787 19.3561 18.1834 19.396 18.195C19.3979 18.1956 19.3999 18.1962 19.4019 18.1967C19.6443 18.2626 19.9045 18.2631 20.1543 18.1981C20.2899 18.1651 20.4106 18.1088 20.5109 18.0579C20.5156 18.0555 20.5202 18.0531 20.5248 18.0505C20.6392 17.9858 20.7463 17.9088 20.8431 17.8216C20.8448 17.8201 20.8464 17.8186 20.848 17.8171C21.0498 17.6283 21.1998 17.4027 21.2808 17.1677C21.3016 17.1095 21.3193 17.0501 21.3335 16.9913C21.3344 16.9876 21.3352 16.984 21.336 16.9803C21.3481 16.9221 21.3572 16.8599 21.3631 16.7947C21.3684 16.7333 21.3703 16.6717 21.3686 16.6114C21.3685 16.6088 21.3684 16.6061 21.3683 16.6035C21.3653 16.5443 21.3579 16.4817 21.3462 16.4164C21.3377 16.3698 21.3372 16.3193 21.3445 16.2579C21.3476 16.2375 21.3523 16.218 21.3586 16.1996C21.3592 16.198 21.3596 16.1964 21.3602 16.1948C21.3686 16.1688 21.3775 16.1426 21.3859 16.1262C21.3867 16.1245 21.3875 16.1229 21.3884 16.1213C21.3959 16.1057 21.4079 16.0866 21.4249 16.0628C21.427 16.0599 21.429 16.057 21.431 16.054C21.442 16.0376 21.4548 16.0218 21.4691 16.0072C21.5121 15.9654 21.5541 15.9342 21.5968 15.9122C21.651 15.8844 21.7045 15.8528 21.756 15.8183C21.7589 15.8163 21.7618 15.8143 21.7647 15.8123C21.8128 15.7778 21.861 15.7386 21.9083 15.6954C21.9529 15.6545 21.9964 15.6101 22.0374 15.5634C22.0397 15.5608 22.042 15.5581 22.0442 15.5554C22.0811 15.5108 22.1172 15.4611 22.1566 15.4006C22.1865 15.3536 22.2212 15.2969 22.2522 15.2323C22.2532 15.2302 22.2541 15.2281 22.2551 15.226C22.2801 15.1712 22.3029 15.1141 22.3231 15.0562C22.3746 14.9163 22.3947 14.7748 22.4069 14.6641C22.4218 14.5173 22.4092 14.377 22.3966 14.2712C22.3957 14.2644 22.3947 14.2576 22.3936 14.2509C22.3701 14.12 22.335 13.9972 22.2892 13.886C22.2876 13.8821 22.2859 13.8781 22.2841 13.8743C22.2279 13.7506 22.1662 13.6455 22.0953 13.5527C22.0936 13.5504 22.0918 13.5481 22.0899 13.5459C22.0113 13.448 21.9231 13.3611 21.828 13.2874C21.8263 13.2862 21.8247 13.2849 21.823 13.2836C21.7793 13.251 21.7438 13.2149 21.7192 13.1774C21.6853 13.1265 21.6646 13.0856 21.656 13.0524C21.6554 13.0502 21.6548 13.048 21.6541 13.0458C21.6378 12.9879 21.6312 12.9438 21.6334 12.903C21.6357 12.8493 21.6441 12.8085 21.6609 12.7694C21.7064 12.6631 21.7409 12.5512 21.7635 12.4382C21.7852 12.3316 21.7944 12.217 21.7915 12.0847C21.7879 11.9634 21.7727 11.8468 21.7466 11.7381C21.7462 11.7363 21.7457 11.7346 21.7453 11.7329C21.7166 11.6208 21.6766 11.5103 21.6264 11.4036C21.5996 11.3469 21.5723 11.2956 21.543 11.2469C21.5416 11.2446 21.5402 11.2423 21.5388 11.2401C21.5284 11.2236 21.5172 11.2074 21.5062 11.1911C22.666 12.5848 23.2968 14.3215 23.2968 16.1585C23.2968 17.5487 22.1643 18.6796 20.7722 18.6796Z" fill="#E6007E"/>
<path d="M6.52002 12.3047C6.71418 12.3047 6.87158 12.1473 6.87158 11.9531C6.87158 11.759 6.71418 11.6016 6.52002 11.6016C6.32586 11.6016 6.16846 11.759 6.16846 11.9531C6.16846 12.1473 6.32586 12.3047 6.52002 12.3047Z" fill="#E6007E"/>
<path d="M4.83252 13.7109C5.02668 13.7109 5.18408 13.5535 5.18408 13.3594C5.18408 13.1652 5.02668 13.0078 4.83252 13.0078C4.63836 13.0078 4.48096 13.1652 4.48096 13.3594C4.48096 13.5535 4.63836 13.7109 4.83252 13.7109Z" fill="#E6007E"/>
<path d="M7.64502 14.8359C7.83918 14.8359 7.99658 14.6785 7.99658 14.4844C7.99658 14.2902 7.83918 14.1328 7.64502 14.1328C7.45086 14.1328 7.29346 14.2902 7.29346 14.4844C7.29346 14.6785 7.45086 14.8359 7.64502 14.8359Z" fill="#E6007E"/>
<path d="M4.87939 12.0234C5.07356 12.0234 5.23096 11.866 5.23096 11.6719C5.23096 11.4777 5.07356 11.3203 4.87939 11.3203C4.68523 11.3203 4.52783 11.4777 4.52783 11.6719C4.52783 11.866 4.68523 12.0234 4.87939 12.0234Z" fill="#E6007E"/>
<path d="M9.09814 10.6172C9.29231 10.6172 9.44971 10.4598 9.44971 10.2656C9.44971 10.0715 9.29231 9.91406 9.09814 9.91406C8.90398 9.91406 8.74658 10.0715 8.74658 10.2656C8.74658 10.4598 8.90398 10.6172 9.09814 10.6172Z" fill="#E6007E"/>
<path d="M10.5044 13.8984C10.6986 13.8984 10.856 13.741 10.856 13.5469C10.856 13.3527 10.6986 13.1953 10.5044 13.1953C10.3102 13.1953 10.1528 13.3527 10.1528 13.5469C10.1528 13.741 10.3102 13.8984 10.5044 13.8984Z" fill="#E6007E"/>
<path d="M11.9106 11.5547C12.1048 11.5547 12.2622 11.3973 12.2622 11.2031C12.2622 11.009 12.1048 10.8516 11.9106 10.8516C11.7165 10.8516 11.5591 11.009 11.5591 11.2031C11.5591 11.3973 11.7165 11.5547 11.9106 11.5547Z" fill="#E6007E"/>
<path d="M15.1919 14.3672C15.3861 14.3672 15.5435 14.2098 15.5435 14.0156C15.5435 13.8215 15.3861 13.6641 15.1919 13.6641C14.9977 13.6641 14.8403 13.8215 14.8403 14.0156C14.8403 14.2098 14.9977 14.3672 15.1919 14.3672Z" fill="#E6007E"/>
</svg>
