<?xml version="1.0" encoding="UTF-8" standalone="no"?>
<svg
   width="1514.4001"
   height="61.119141"
   viewBox="0 0 1514.4001 61.119141"
   fill="none"
   version="1.1"
   id="svg15"
   xmlns="http://www.w3.org/2000/svg"
   xmlns:svg="http://www.w3.org/2000/svg">
  <g
     filter="url(#filter0_d_76_474)"
     id="g13"
     transform="translate(-0.38937598,0.6337297)">
    <path
       d="m 37.1947,17.5793 c 0.4099,-0.0077 12.5571,6.6819 26.9838,14.8759 14.4267,8.194 26.574,14.8912 26.9939,14.8912 0.4199,0 12.5666,-6.8499 53.2476,-30.4544 l 25.994,14.685 c 14.297,8.0795 26.554,14.9294 27.244,15.2272 0.77,0.336 11.387,-5.2997 27.744,-14.7308 16.406,-9.454 26.974,-15.0669 27.743,-14.7309 0.69,0.3055 12.917,7.1555 53.118,29.9123 l 26.554,-15.2654 c 14.607,-8.3925 27.004,-15.128 27.554,-14.9524 0.55,0.168 12.697,6.934 26.994,15.0287 23.644,13.3868 26.174,14.624 27.993,13.7229 1.1,-0.5422 12.797,-7.1707 25.994,-14.7156 13.197,-7.5525 24.445,-13.9978 24.995,-14.3185 0.559,-0.3207 9.207,4.0779 37.991,20.4124 l 36.492,-21.1302 11.247,6.2773 c 6.189,3.4517 18.376,10.3091 42.93,24.2152 l 26.654,-15.3417 c 22.585,-13.005 26.914,-15.2044 28.394,-14.4789 0.959,0.4735 12.997,7.2167 26.743,14.983 13.747,7.774 25.555,13.9977 26.244,13.8297 0.69,-0.1604 12.948,-7.0028 53.238,-30.0956 l 53.488,30.3934 53.988,-30.5461 21.614,12.2674 c 11.571,6.5703 23.445,13.3125 31.874,18.1107 l 25.994,-14.8836 c 14.296,-8.1863 26.554,-15.0209 27.243,-15.1889 0.69,-0.1681 9.118,4.1618 18.746,9.6219 9.618,5.4601 18.053,10.1107 18.743,10.3322 0.69,0.2214 9.12,-4.0779 18.75,-9.5609 9.62,-5.483 17.83,-9.9657 18.24,-9.9504 0.41,0.0077 12.11,6.43 26,14.2727 13.89,7.835 25.8,14.54 26.49,14.8913 0.83,0.42 9.14,-3.8489 25,-12.86 13.05,-7.4151 25.09,-14.2879 29.74,-17.037 l 53.99,30.439 3,-1.7334 c 1.65,-0.9545 13.68,-7.8122 26.74,-15.2272 14.6,-8.2933 24.23,-13.2876 24.99,-12.9516 0.69,0.2979 12.72,7.0103 26.75,14.9217 14.03,7.9115 26.05,14.1963 26.74,13.9672 0.69,-0.2291 12.84,-7.0637 52.74,-29.9885 l 26.74,15.1737 c 16.29,9.2326 27.24,14.96 28,14.6393 0.69,-0.2979 12.84,-7.1707 52.74,-30.0191 l 37.99,21.3821 -0.5,-14.8607 -11,-6.3001 C 1495.06,11.2715 1486.62,6.53685 1474.62,-7.74857e-7 L 1450.87,13.4938 c -13.06,7.415 -25.09,14.2802 -29.74,17.0141 l -53.99,-30.4467436 -3,1.7487836 c -1.65,0.9622 -13.69,7.82737 -26.74,15.24246 -14.53,8.255 -24.24,13.2874 -25,12.9591 -0.69,-0.2979 -12.71,-7.0179 -26.74,-14.937 -14.03,-7.91904 -26.05,-14.211563 -26.74,-13.97483 -0.69,0.23673 -12.84,7.07909 -52.74,30.00393 L 1179.43,15.9298 C 1163.15,6.69727 1152.2,0.969853 1151.44,1.29059 1150.75,1.58841 1138.6,8.46131 1098.7,31.3098 L 1044.71,0.763732 1008.72,21.3822 1005.47,19.6869 C 1003.68,18.7476 995.366,14.1123 986.978,9.37762 978.05,4.32989 971.111,0.923987 970.231,1.14545 969.402,1.35927 958.044,7.65183 944.987,15.1432 931.93,22.6347 920.283,29.2478 919.103,29.8434 917.104,30.8667 915.394,30.0345 890.36,15.8458 874.163,6.66674 863.266,0.969853 862.506,1.29059 861.816,1.58841 849.669,8.46131 809.768,31.3098 L 755.78,0.763732 729.286,16.0367 c -14.576,8.4002 -26.723,15.2731 -26.993,15.2731 -0.27,0 -12.088,-6.5751 -26.244,-14.6087 C 661.892,8.67513 649.745,1.9703 649.055,1.80994 c -0.69,-0.15283 -12.947,6.42217 -27.244,14.60856 -14.297,8.1939 -26.444,14.8913 -26.994,14.8913 -0.55,0 -11.457,-5.9337 -24.244,-13.1883 C 557.786,10.8591 545.868,4.16194 540.83,1.52734 L 523.224,11.6456 c -9.688,5.567 -17.786,10.3782 -17.996,10.6913 -0.22,0.313 -8.378,-3.9406 -18.136,-9.4542 C 477.334,7.36155 468.896,2.55826 468.346,2.19171 467.736,1.79461 456.829,7.53726 440.602,16.808 425.896,25.2005 413.299,31.9053 412.609,31.6992 411.919,31.5006 399.712,24.7118 359.611,1.90918 L 333.247,16.9913 C 314.631,27.6442 306.373,31.9435 305.133,31.6151 304.174,31.3707 292.366,24.9103 278.889,17.2585 265.413,9.61439 253.835,3.11575 253.145,2.82556 252.385,2.49719 241.468,8.23986 198.408,32.7989 l -2.5,-1.4357 C 194.529,30.5766 182.501,23.7113 144.92,2.29089 L 118.926,17.1822 C 104.629,25.3762 92.3721,32.2414 91.6823,32.4476 90.9924,32.6538 78.5053,26.0863 63.9386,17.8542 43.7432,6.4376 37.0547,3.03169 35.825,3.5357 34.9352,3.90226 26.7471,8.49182 1.06297,23.2914 l -0.05999,7.0638 c -0.029996,3.887 0.16996,7.0637 0.44989,7.0637 0.26994,0 8.25812,-4.4597 17.74593,-9.9121 9.4878,-5.4525 17.586,-9.9199 17.9959,-9.9275 z"
       fill="#36b43c"
       shape-rendering="crispEdges"
       id="path1" />
    <path
       d="m 82.9853,9.20239 c 0.02,1.38981 1.0097,3.06991 2.4494,4.20011 1.5096,1.176 3.5392,1.871 5.4488,1.871 1.9195,0 3.979,-0.7103 5.5487,-1.9092 1.5596,-1.1913 2.4994,-2.772 2.4994,-4.20006 0,-1.40511 -0.9498,-3.03174 -2.4494,-4.20013 -1.5597,-1.20657 -3.5792,-1.90906 -5.4988,-1.90906 -1.9195,0 -3.9791,0.71013 -5.5487,1.90906 -1.6096,1.22948 -2.4794,2.74152 -2.4494,4.23828 z"
       fill="#fcb102"
       fill-opacity="0.99"
       shape-rendering="crispEdges"
       id="path2" />
    <path
       d="m 190.421,8.95801 c 0,2.00839 0.71,3.15389 2.809,4.50559 1.54,0.9927 3.899,1.8099 5.239,1.8099 1.34,0 3.539,-0.7715 4.889,-1.7184 1.339,-0.9469 2.519,-2.4054 2.609,-3.2454 0.09,-0.84003 0.12,-2.13067 0.06,-2.86378 -0.07,-0.7331 -1.02,-2.02363 -2.119,-2.86365 -1.27,-0.96983 -3.37,-1.53483 -5.749,-1.55011 -2.569,-0.01527 -4.379,0.48871 -5.749,1.60364 -1.219,1.00038 -1.999,2.68036 -1.989,4.32221 z"
       fill="#fcb102"
       fill-opacity="0.99"
       shape-rendering="crispEdges"
       id="path3" />
    <path
       d="m 297.876,8.97333 c 0.01,1.45857 0.84,3.11567 2.01,4.00917 1.333,1.0182 3.332,1.5273 5.998,1.5273 3.2,0 4.409,-0.42 6.029,-2.1 1.12,-1.1531 2.019,-2.70337 1.999,-3.43647 -0.01,-0.73311 -0.589,-2.19939 -1.279,-3.26087 -0.69,-1.05384 -2.38,-2.27553 -3.749,-2.71081 -1.46,-0.45819 -3.71,-0.53464 -5.399,-0.17572 -1.6,0.336 -3.519,1.29816 -4.259,2.13818 -0.75,0.84002 -1.35,2.64228 -1.35,4.00922 z"
       fill="#fcb102"
       fill-opacity="0.99"
       shape-rendering="crispEdges"
       id="path4" />
    <path
       d="m 405.362,8.40057 c 0,2.43603 0.559,3.53573 2.369,4.65073 1.31,0.8018 3.779,1.4509 5.499,1.4433 1.869,-0.0077 4.049,-0.7026 5.409,-1.7183 1.579,-1.1837 2.259,-2.5735 2.249,-4.56665 -0.02,-2.22222 -0.64,-3.20731 -2.779,-4.41387 -1.51,-0.85529 -3.879,-1.55792 -5.249,-1.56556 -1.38,0 -3.629,0.66446 -4.999,1.4892 -1.96,1.16839 -2.499,2.18401 -2.499,4.68115 z"
       fill="#fcb102"
       fill-opacity="0.99"
       shape-rendering="crispEdges"
       id="path5" />
    <path
       d="m 588.15,11.6232 c 0.69,0.7254 2.359,1.6495 3.709,2.0466 1.36,0.4047 3.359,0.5574 4.459,0.3436 1.1,-0.2138 3.009,-1.2219 4.249,-2.2375 1.24,-1.0157 2.249,-2.70333 2.249,-3.75716 0,-1.04621 -0.389,-2.51244 -0.869,-3.24555 -0.48,-0.7331 -2.39,-1.80983 -4.249,-2.38257 -2.86,-0.88583 -3.82,-0.88583 -6.259,0 -1.59,0.57274 -3.269,1.64947 -3.749,2.38257 -0.48,0.73311 -0.86,2.28335 -0.84,3.43646 0.02,1.15312 0.6,2.69565 1.3,3.41355 z"
       fill="#fcb102"
       fill-opacity="0.99"
       shape-rendering="crispEdges"
       id="path6" />
    <path
       d="m 694.296,9.16424 c 0.269,1.26006 1.509,2.81016 2.749,3.44406 1.24,0.6338 3.599,1.1379 5.249,1.1302 1.719,-0.0152 3.969,-0.7484 5.279,-1.7259 1.529,-1.1531 2.259,-2.56579 2.219,-4.37564 -0.02,-1.70294 -0.85,-3.30664 -2.27,-4.41394 -1.269,-0.98511 -3.409,-1.7259 -4.978,-1.71826 -1.51,0.01527 -3.49,0.28261 -4.389,0.5957 -0.9,0.3131 -2.25,1.51962 -3,2.67273 -0.75,1.15312 -1.129,3.13103 -0.859,4.39105 z"
       fill="#fcb102"
       fill-opacity="0.99"
       shape-rendering="crispEdges"
       id="path7" />
    <path
       d="m 801.821,7.29321 c 0.027,1.80222 0.843,3.32969 2.449,4.58199 1.32,1.031 3.33,1.871 4.449,1.871 1.13,0 3.17,-0.4277 4.549,-0.9546 1.37,-0.527 2.94,-1.7259 3.5,-2.6728 0.549,-0.94695 1.019,-2.32149 1.029,-3.05459 0.02,-0.73311 -0.879,-2.28335 -1.999,-3.43646 -1.62,-1.68004 -2.83,-2.1001 -6.029,-2.1001 -2.666,0 -4.665,0.5092 -5.998,1.5274 -1.27,0.96984 -1.98,2.51231 -1.95,4.23816 z"
       fill="#fcb102"
       fill-opacity="0.99"
       shape-rendering="crispEdges"
       id="path8" />
    <path
       d="m 1090.72,7.48419 c 0.04,1.57312 0.97,3.21501 2.48,4.39101 1.51,1.1761 3.54,1.871 5.45,1.871 1.92,0 3.98,-0.7102 5.55,-1.9092 1.42,-1.0843 2.51,-2.81795 2.53,-4.00924 0.02,-1.15312 -0.88,-3.0469 -2,-4.20001 -1.59,-1.64949 -2.84,-2.09999 -5.78,-2.08472 -2.5,0.01018 -4.51,0.5829 -6.03,1.7182 -1.5,1.12257 -2.25,2.5582 -2.2,4.22296 z"
       fill="#fcb102"
       fill-opacity="0.99"
       shape-rendering="crispEdges"
       id="path9" />
    <path
       d="m 1199.27,10.5541 c 0.89,0.9774 2.58,2.0695 3.76,2.436 1.18,0.3589 2.49,0.6796 2.9,0.7102 0.41,0.0229 1.99,-0.42 3.5,-0.9928 1.51,-0.5727 3.09,-1.6036 3.5,-2.2909 0.41,-0.68726 0.77,-2.19928 0.79,-3.35239 0.03,-1.15312 -0.76,-2.87137 -1.75,-3.8183 -0.98,-0.93929 -3.25,-1.88628 -5.04,-2.1001 -2.65,-0.313096 -3.8,0.0383 -6.25,1.90924 -1.65,1.26003 -3,3.06223 -3.01,4.00916 0,0.94693 0.72,2.51239 1.6,3.48989 z"
       fill="#fcb102"
       fill-opacity="0.99"
       shape-rendering="crispEdges"
       id="path10" />
    <path
       d="m 908.647,7.5376 c -0.06,0.77892 0.869,2.32916 2.059,3.4365 1.64,1.512 3.069,2.0008 5.859,1.9931 2.439,-0.0076 4.449,-0.588 5.958,-1.7182 1.38,-1.0309 2.26,-2.60403 2.25,-3.99387 -0.01,-1.26003 -0.62,-2.97829 -1.37,-3.8183 -0.74,-0.84002 -2.659,-1.80218 -4.259,-2.13819 -1.689,-0.358912 -3.939,-0.28265 -5.399,0.17554 -1.369,0.43528 -3.059,1.65716 -3.749,2.711 -0.69,1.06147 -1.299,2.56586 -1.349,3.35242 z"
       fill="#fcb102"
       fill-opacity="0.99"
       shape-rendering="crispEdges"
       id="path11" />
    <path
       d="m 1305.47,6.63653 c -0.14,2.0695 0.43,3.27607 2.17,4.58187 1.43,1.0692 3.56,1.7641 5.43,1.7717 1.69,0 4.09,-0.5116 5.33,-1.1454 1.24,-0.6339 2.47,-2.1841 2.75,-3.44413 0.28,-1.26002 -0.11,-3.23787 -0.86,-4.39099 -0.75,-1.15311 -2.1,-2.35963 -3,-2.67273 -0.9,-0.31309 -2.65,-0.588065 -3.89,-0.595701 -1.24,-0.015274 -3.49,0.672051 -4.99,1.527341 -2.04,1.14548 -2.8,2.28328 -2.94,4.36804 z"
       fill="#fcb102"
       fill-opacity="0.99"
       shape-rendering="crispEdges"
       id="path12" />
    <path
       d="m 1412.64,7.10229 c 0.04,1.16839 1.16,2.97831 2.49,4.00931 1.51,1.176 3.54,1.8709 5.45,1.8709 1.92,0 3.98,-0.7103 5.55,-1.9092 1.42,-1.08438 2.51,-2.8178 2.53,-4.00909 0.02,-1.15312 -0.88,-3.04696 -2,-4.20008 -1.62,-1.68003 -2.83,-2.100032 -6.03,-2.100032 -3.2,0 -4.41,0.420002 -6.03,2.100032 -1.12,1.15312 -2,3.06214 -1.96,4.23816 z"
       fill="#fcb102"
       fill-opacity="0.99"
       shape-rendering="crispEdges"
       id="path13" />
    <rect
       style="fill:#ffffff;fill-opacity:0;stroke:#000000;stroke-width:1.96864;stroke-miterlimit:0;stroke-opacity:0"
       id="rect15"
       width="1512.4314"
       height="59.150501"
       x="1.373696"
       y="0.35059032" />
  </g>
  <defs
     id="defs15">
    <filter
       id="filter0_d_76_474"
       x="-3"
       y="0"
       width="1520"
       height="1019"
       filterUnits="userSpaceOnUse"
       color-interpolation-filters="sRGB">
      <feFlood
         flood-opacity="0"
         result="BackgroundImageFix"
         id="feFlood13" />
      <feColorMatrix
         in="SourceAlpha"
         type="matrix"
         values="0 0 0 0 0 0 0 0 0 0 0 0 0 0 0 0 0 0 127 0"
         result="hardAlpha"
         id="feColorMatrix13" />
      <feOffset
         dy="4"
         id="feOffset13" />
      <feGaussianBlur
         stdDeviation="2"
         id="feGaussianBlur13" />
      <feComposite
         in2="hardAlpha"
         operator="out"
         id="feComposite13" />
      <feColorMatrix
         type="matrix"
         values="0 0 0 0 0 0 0 0 0 0 0 0 0 0 0 0 0 0 0.25 0"
         id="feColorMatrix14" />
      <feBlend
         mode="normal"
         in2="BackgroundImageFix"
         result="effect1_dropShadow_76_474"
         id="feBlend14" />
      <feBlend
         mode="normal"
         in="SourceGraphic"
         in2="effect1_dropShadow_76_474"
         result="shape"
         id="feBlend15" />
    </filter>
  </defs>
</svg>
